<svg xmlns="http://www.w3.org/2000/svg" viewBox="0 0 211.16 253.33"><defs><style>.cls-1,.cls-10,.cls-11,.cls-12{fill:none;stroke-miterlimit:10;}.cls-1{stroke:#43485a;stroke-width:0.5px;}.cls-2,.cls-3{fill:#43485a;}.cls-3{isolation:isolate;font-size:2.78px;font-family:ArialMT, Arial;}.cls-4{opacity:0.48;}.cls-5{fill:#323a40;}.cls-6,.cls-7,.cls-8{font-size:4px;font-family:AdelleSans-Bold, Adelle Sans;font-weight:700;}.cls-6{fill:#f2a444;}.cls-7{fill:#f25757;}.cls-8{fill:#a7bcde;}.cls-9{fill:#606060;opacity:0.08;}.cls-10{stroke:#f25757;}.cls-11{stroke:#a7bcde;}.cls-12{stroke:#f2a444;}.cls-13{fill:#a6bbdd;}.cls-14{fill:#f15757;}.cls-15{fill:#f1a344;}</style></defs><g id="Layer_2" data-name="Layer 2"><g id="Layer_1-2" data-name="Layer 1"><path class="cls-1" d="M5.85,161.32v-1.67h191.8v1.67"/><line class="cls-2" x1="5.85" y1="159.65" x2="5.85" y2="161.32"/><text class="cls-3" transform="translate(2.97 164.12) scale(0.93 1)">1965</text><line class="cls-2" x1="21.83" y1="159.65" x2="21.83" y2="161.32"/><text class="cls-3" transform="translate(18.95 164.12) scale(0.93 1)">1970</text><line class="cls-2" x1="37.81" y1="159.65" x2="37.81" y2="161.32"/><text class="cls-3" transform="translate(34.93 164.12) scale(0.93 1)">1975</text><line class="cls-2" x1="53.79" y1="159.65" x2="53.79" y2="161.32"/><text class="cls-3" transform="translate(50.91 164.12) scale(0.93 1)">1980</text><line class="cls-2" x1="69.78" y1="159.65" x2="69.78" y2="161.32"/><text class="cls-3" transform="translate(66.9 164.12) scale(0.93 1)">1985</text><line class="cls-2" x1="85.76" y1="159.65" x2="85.76" y2="161.32"/><text class="cls-3" transform="translate(82.88 164.12) scale(0.93 1)">1990</text><line class="cls-2" x1="101.75" y1="159.65" x2="101.75" y2="161.32"/><text class="cls-3" transform="translate(98.86 164.12) scale(0.93 1)">1995</text><line class="cls-2" x1="117.73" y1="159.65" x2="117.73" y2="161.32"/><text class="cls-3" transform="translate(114.84 164.12) scale(0.93 1)">2000</text><line class="cls-2" x1="133.72" y1="159.65" x2="133.72" y2="161.32"/><text class="cls-3" transform="translate(130.83 164.12) scale(0.93 1)">2005</text><line class="cls-2" x1="149.7" y1="159.65" x2="149.7" y2="161.32"/><text class="cls-3" transform="translate(146.81 164.12) scale(0.93 1)">2010</text><line class="cls-2" x1="165.68" y1="159.65" x2="165.68" y2="161.32"/><text class="cls-3" transform="translate(162.8 164.12) scale(0.93 1)">2015</text><line class="cls-2" x1="181.66" y1="159.65" x2="181.66" y2="161.32"/><text class="cls-3" transform="translate(178.78 164.12) scale(0.93 1)">2020</text><line class="cls-2" x1="197.65" y1="159.65" x2="197.65" y2="161.32"/><text class="cls-3" transform="translate(194.77 164.12) scale(0.93 1)">2025</text><g id="x-grid-lines-svg_grid-x-svg_datawrapper-G5ttZ-1fn7900-svg" data-name="x-grid-lines-svg grid-x-svg datawrapper-G5ttZ-1fn7900-svg" class="cls-4"><line class="cls-5" x1="5.81" y1="159.85" x2="5.81" y2="1.65"/><line class="cls-5" x1="21.82" y1="159.85" x2="21.82" y2="1.65"/><line class="cls-5" x1="37.83" y1="159.85" x2="37.83" y2="1.65"/><line class="cls-5" x1="53.85" y1="159.85" x2="53.85" y2="1.65"/><line class="cls-5" x1="69.86" y1="159.85" x2="69.86" y2="1.65"/><line class="cls-5" x1="85.87" y1="159.85" x2="85.87" y2="1.65"/><line class="cls-5" x1="101.88" y1="159.85" x2="101.88" y2="1.65"/><line class="cls-5" x1="117.9" y1="159.85" x2="117.9" y2="1.65"/><line class="cls-5" x1="133.91" y1="159.85" x2="133.91" y2="1.65"/><line class="cls-5" x1="149.92" y1="159.85" x2="149.92" y2="1.65"/><line class="cls-5" x1="165.93" y1="159.85" x2="165.93" y2="1.65"/><line class="cls-5" x1="181.69" y1="159.85" x2="181.69" y2="1.65"/><line class="cls-5" x1="197.7" y1="159.85" x2="197.7" y2="1.65"/></g><path class="cls-2" d="M5.92,159.35V1.49"/><line class="cls-2" x1="5.92" y1="159.35" x2="4.37" y2="159.35"/><text class="cls-3" transform="translate(0 160.24) scale(0.93 1)">0.0</text><line class="cls-2" x1="5.92" y1="146.2" x2="4.37" y2="146.2"/><text class="cls-3" transform="translate(0 147.08) scale(0.93 1)">0.5</text><line class="cls-2" x1="5.92" y1="133.04" x2="4.37" y2="133.04"/><text class="cls-3" transform="translate(0 133.93) scale(0.93 1)">1.0</text><line class="cls-2" x1="5.92" y1="119.89" x2="4.37" y2="119.89"/><text class="cls-3" transform="translate(0 120.77) scale(0.93 1)">1.5</text><line class="cls-2" x1="5.92" y1="106.73" x2="4.37" y2="106.73"/><text class="cls-3" transform="translate(0 107.62) scale(0.93 1)">2.0</text><line class="cls-2" x1="5.92" y1="93.58" x2="4.37" y2="93.58"/><text class="cls-3" transform="translate(0 94.46) scale(0.93 1)">2.5</text><line class="cls-2" x1="5.92" y1="80.42" x2="4.37" y2="80.42"/><text class="cls-3" transform="translate(0 81.31) scale(0.93 1)">3.0</text><line class="cls-2" x1="5.92" y1="67.27" x2="4.37" y2="67.27"/><text class="cls-3" transform="translate(0 68.16) scale(0.93 1)">3.5</text><line class="cls-2" x1="5.92" y1="54.11" x2="4.37" y2="54.11"/><text class="cls-3" transform="translate(0 55) scale(0.93 1)">4.0</text><line class="cls-2" x1="5.92" y1="40.96" x2="4.37" y2="40.96"/><text class="cls-3" transform="translate(0 41.84) scale(0.93 1)">4.5</text><line class="cls-2" x1="5.92" y1="27.8" x2="4.37" y2="27.8"/><text class="cls-3" transform="translate(0 28.69) scale(0.93 1)">5.0</text><line class="cls-2" x1="5.92" y1="14.65" x2="4.37" y2="14.65"/><text class="cls-3" transform="translate(0 15.53) scale(0.93 1)">5.5</text><line class="cls-2" x1="5.92" y1="1.49" x2="4.37" y2="1.49"/><text class="cls-3" transform="translate(0 2.38) scale(0.93 1)">6.0</text><text class="cls-6" transform="translate(179.47 9.43)">TV Series</text><text class="cls-7" transform="translate(179.47 98.61)">Movies</text><text class="cls-8" transform="translate(179.47 129.94)">TV Performances</text><rect class="cls-9" x="21.3" y="1.65" width="48.54" height="251.68"/><rect class="cls-9" x="86.02" y="1.65" width="48.54" height="251.32"/><rect class="cls-9" x="149.66" y="1.65" width="48.54" height="251.32"/><path class="cls-10" d="M18.54,106.58c1.61,0,1.61-13.26,3.22-13.26S23.36,88.9,25,88.9s1.6,11,3.21,11c9.65,0,9.65,6.63,19.3,6.63,3.21,0,3.21,4.42,6.42,4.42,4.83,0,4.83,4.42,9.65,4.42,3.22,0,3.22,8.84,6.44,8.84,4.82,0,4.82,8.85,9.64,8.85h6.43c1.61,0,1.61-8.85,3.21-8.85,6.43,0,6.43-8.84,12.87-8.84,1.6,0,1.6-4.42,3.21-4.42,3.22,0,3.22-8.84,6.43-8.84,1.61,0,1.61-4.42,3.22-4.42s1.6-8.84,3.21-8.84,1.61,4.42,3.22,4.42,1.61-4.42,3.21-4.42,1.61,4.42,3.22,4.42,1.6,4.42,3.21,4.42,1.61-4.42,3.22-4.42,1.61,8.84,3.22,8.84h3.21c3.22,0,3.22,8.84,6.43,8.84h9.64c3.22,0,3.22,8.84,6.44,8.84h3.21c1.61,0,1.61,4.42,3.21,4.42h3.23c1.6,0,1.6-8.84,3.21-8.84s1.61-13.26,3.21-13.26h6.44"/><path class="cls-11" d="M12.6,133.27c1.6,0,1.6-13.19,3.2-13.19s1.6-13.19,3.2-13.19c8,0,8,6.6,16,6.6,1.6,0,1.6,4,3.19,4,3.21,0,3.21,2.64,6.41,2.64H73.37c38.37,0,38.37,4.4,76.75,4.4,4.8,0,4.8,8.79,9.59,8.79h28.78"/><g id="TV_Series" data-name="TV Series"><path class="cls-12" d="M18.64,133.28H92.15c3.2,0,3.2-4.39,6.4-4.39s3.2-4.4,6.39-4.4h6.4c1.59,0,1.59-4.39,3.19-4.39s1.6-8.79,3.2-8.79h6.39c1.6,0,1.6,4.39,3.2,4.39h6.4c1.59,0,1.59-4.39,3.19-4.39h6.39c1.6,0,1.6,4.39,3.2,4.39,3.2,0,3.2-4.39,6.39-4.39,1.6,0,1.6-13.19,3.2-13.19s1.6-8.79,3.2-8.79,1.6-4.39,3.19-4.39,1.6,4.39,3.2,4.39,1.6-8.79,3.19-8.79,1.6-26.37,3.21-26.37,1.59-4.39,3.19-4.39,1.6-8.79,3.2-8.79,1.59-8.79,3.19-8.79,1.6-17.58,3.2-17.58,1.6-4.4,3.2-4.4"/></g><path class="cls-13" d="M35.78,222h-5c.17-.11.13-.22.13-.33q0-20,0-40c0-3.25,0-6.51,0-9.77,0-.2.14-.28.93-.27,1.07,0,2.14,0,3.22,0,.44,0,.62,0,.58.16a.45.45,0,0,0,0,.2v49.68C35.6,221.75,35.54,221.85,35.78,222Z"/><path class="cls-14" d="M29.33,196.79q0,12.45,0,24.89c0,.24-.24.29-1,.28-1.07,0-2.15,0-3.22,0-.36,0-.54,0-.48-.13s0-.09,0-.13v-49.8c0-.28,0-.28,1-.28h3.14c.41,0,.57,0,.53.15s0,.11,0,.17Z"/><path class="cls-13" d="M54.59,222h-5c.19-.11.14-.22.14-.33V192.07c0-.35-.14-.3,1.14-.31,1,0,2,0,3,0,.44,0,.63,0,.58.16a.67.67,0,0,0,0,.2v29.51C54.41,221.73,54.33,221.84,54.59,222Z"/><path class="cls-15" d="M60.68,206.87q0,7.41,0,14.83c0,.21-.2.27-.94.26-1.1,0-2.2,0-3.29,0-.37,0-.54,0-.49-.13a.38.38,0,0,0,0-.15V192.05c0-.33-.16-.28,1-.29,1,0,2.09,0,3.13,0,.41,0,.58,0,.53.15a.48.48,0,0,0,0,.17Z"/><path class="cls-14" d="M41.87,206.86q0,7.42,0,14.85c0,.2-.19.26-.9.25-1.06,0-2.14,0-3.21,0-.45,0-.71,0-.61-.16s0-.07,0-.11q0-14.82,0-29.64c0-.23.19-.3,1-.28,1.07,0,2.15,0,3.22,0,.36,0,.53,0,.49.14a.48.48,0,0,0,0,.17Z"/><path class="cls-14" d="M48.14,206.87q0,7.42,0,14.83c0,.22-.21.27-.95.26-1.09,0-2.19,0-3.29,0-.36,0-.54,0-.48-.13s0-.09,0-.13V192.05c0-.29,0-.29,1-.29s2.09,0,3.14,0c.41,0,.57,0,.53.15s0,.11,0,.17Z"/><path class="cls-14" d="M67,216.93c0,1.6,0,3.2,0,4.8,0,.19-.17.24-.82.23-1.09,0-2.19,0-3.29,0-.45,0-.62,0-.62-.16q0-4.84,0-9.71c0-.13.13-.17.61-.17,1.1,0,2.2,0,3.29,0,.64,0,.83,0,.83.23C66.94,213.73,67,215.33,67,216.93Z"/><polygon class="cls-2" points="38.45 231.11 40.11 231.69 38.45 232.28 38.45 232.9 40.74 232.9 40.74 232.43 40.11 232.43 39.03 232.47 40.74 231.86 40.74 231.53 39.03 230.92 40.11 230.96 40.74 230.96 40.74 230.49 38.45 230.49 38.45 231.11"/><path class="cls-2" d="M39,230a1.4,1.4,0,0,0,.6.12h.11a1.34,1.34,0,0,0,.58-.12,1,1,0,0,0,.39-.35,1,1,0,0,0,0-1,.93.93,0,0,0-.39-.34,1.38,1.38,0,0,0-.59-.12h-.11a1.38,1.38,0,0,0-.59.12,1,1,0,0,0-.39.35,1,1,0,0,0-.14.51.92.92,0,0,0,.14.5A.89.89,0,0,0,39,230Zm0-1.22a.9.9,0,0,1,.54-.13h.11a1,1,0,0,1,.55.13.45.45,0,0,1,0,.73.94.94,0,0,1-.54.13h-.12a.94.94,0,0,1-.54-.13.42.42,0,0,1-.18-.36A.41.41,0,0,1,39,228.81Z"/><polygon class="cls-2" points="40.74 226.8 38.45 226.01 38.45 226.53 40.17 227.05 38.45 227.56 38.45 228.09 40.74 227.29 40.74 226.8"/><rect class="cls-2" x="38.45" y="225.29" width="2.29" height="0.47"/><polygon class="cls-2" points="40.74 223.32 40.36 223.32 40.36 224.38 39.75 224.38 39.75 223.48 39.38 223.48 39.38 224.38 38.83 224.38 38.83 223.33 38.45 223.33 38.45 224.86 40.74 224.86 40.74 223.32"/><polygon class="cls-2" points="98.06 231.83 99.72 232.41 98.06 233 98.06 233.62 100.35 233.62 100.35 233.15 99.72 233.15 98.64 233.19 100.35 232.58 100.35 232.25 98.64 231.64 99.72 231.68 100.35 231.68 100.35 231.21 98.06 231.21 98.06 231.83"/><path class="cls-2" d="M98.56,230.75a1.38,1.38,0,0,0,.59.12h.12a1.21,1.21,0,0,0,.58-.13.87.87,0,0,0,.39-.34,1,1,0,0,0,0-1,.87.87,0,0,0-.39-.34,1.38,1.38,0,0,0-.59-.12h-.11a1.38,1.38,0,0,0-.59.12.89.89,0,0,0-.39.35,1,1,0,0,0-.14.51.92.92,0,0,0,.14.5A.89.89,0,0,0,98.56,230.75Zm0-1.22a.9.9,0,0,1,.54-.13h.11a1,1,0,0,1,.55.13.45.45,0,0,1,0,.73.94.94,0,0,1-.54.13h-.12a.94.94,0,0,1-.54-.13.42.42,0,0,1-.18-.36A.41.41,0,0,1,98.61,229.53Z"/><polygon class="cls-2" points="100.35 227.52 98.06 226.73 98.06 227.25 99.78 227.77 98.06 228.28 98.06 228.81 100.35 228.01 100.35 227.52"/><rect class="cls-2" x="98.06" y="226.01" width="2.29" height="0.47"/><polygon class="cls-2" points="100.35 224.04 99.97 224.04 99.97 225.1 99.36 225.1 99.36 224.2 98.99 224.2 98.99 225.1 98.44 225.1 98.44 224.05 98.06 224.05 98.06 225.57 100.35 225.57 100.35 224.04"/><polygon class="cls-2" points="159.9 231.83 161.56 232.41 159.9 233 159.9 233.62 162.19 233.62 162.19 233.15 161.56 233.15 160.49 233.19 162.19 232.58 162.19 232.25 160.49 231.64 161.56 231.68 162.19 231.68 162.19 231.21 159.9 231.21 159.9 231.83"/><path class="cls-2" d="M160.4,230.75a1.4,1.4,0,0,0,.6.12h.11a1.21,1.21,0,0,0,.58-.13.87.87,0,0,0,.39-.34,1,1,0,0,0,0-1,.87.87,0,0,0-.39-.34,1.38,1.38,0,0,0-.59-.12H161a1.4,1.4,0,0,0-.6.12.89.89,0,0,0-.39.35,1,1,0,0,0-.14.51.92.92,0,0,0,.14.5A.89.89,0,0,0,160.4,230.75Zm0-1.22a.9.9,0,0,1,.54-.13h.12a.94.94,0,0,1,.54.13.45.45,0,0,1,0,.73.94.94,0,0,1-.54.13H161a.9.9,0,0,1-.54-.13.4.4,0,0,1-.19-.36A.41.41,0,0,1,160.45,229.53Z"/><polygon class="cls-2" points="162.19 227.52 159.9 226.73 159.9 227.25 161.62 227.77 159.9 228.28 159.9 228.81 162.19 228.01 162.19 227.52"/><rect class="cls-2" x="159.9" y="226.01" width="2.29" height="0.47"/><polygon class="cls-2" points="162.19 224.04 161.81 224.04 161.81 225.1 161.2 225.1 161.2 224.2 160.83 224.2 160.83 225.1 160.28 225.1 160.28 224.05 159.9 224.05 159.9 225.57 162.19 225.57 162.19 224.04"/><path class="cls-2" d="M46.62,231.83a.61.61,0,0,0-.45.18,1.4,1.4,0,0,0-.3.59,1.3,1.3,0,0,1-.14.33.22.22,0,0,1-.18.11.23.23,0,0,1-.2-.1.47.47,0,0,1-.07-.26.39.39,0,0,1,.09-.28.3.3,0,0,1,.24-.1v-.47a.66.66,0,0,0-.37.1.75.75,0,0,0-.25.3,1.19,1.19,0,0,0-.08.44,1,1,0,0,0,.08.44.69.69,0,0,0,.22.3.56.56,0,0,0,.33.1.64.64,0,0,0,.57-.39,2.76,2.76,0,0,0,.16-.39,1.24,1.24,0,0,1,.15-.34.24.24,0,0,1,.2-.09.22.22,0,0,1,.19.09.43.43,0,0,1,.07.27c0,.3-.12.45-.38.45v.47a.71.71,0,0,0,.39-.11.8.8,0,0,0,.27-.33,1.28,1.28,0,0,0,.09-.48,1,1,0,0,0-.16-.61A.56.56,0,0,0,46.62,231.83Z"/><polygon class="cls-2" points="47.22 230.12 47.22 229.65 44.94 229.65 44.94 230.12 45.86 230.12 45.86 231.04 44.94 231.04 44.94 231.51 47.22 231.51 47.22 231.04 46.24 231.04 46.24 230.12 47.22 230.12"/><path class="cls-2" d="M45.44,229.18a1.25,1.25,0,0,0,.59.13h.11a1.38,1.38,0,0,0,.59-.13.87.87,0,0,0,.39-.34,1.07,1.07,0,0,0,0-1,1,1,0,0,0-.4-.34,1.35,1.35,0,0,0-.59-.12H46a1.38,1.38,0,0,0-.59.12.89.89,0,0,0-.53.85,1,1,0,0,0,.13.51A.89.89,0,0,0,45.44,229.18Zm0-1.21a1,1,0,0,1,.55-.13h.11a.9.9,0,0,1,.54.13.39.39,0,0,1,.19.36.43.43,0,0,1-.2.37.9.9,0,0,1-.54.13H46a1,1,0,0,1-.54-.13.44.44,0,0,1-.19-.37A.41.41,0,0,1,45.48,228Z"/><path class="cls-2" d="M47.22,226.55h-.83v-.38l.83-.43v-.5h0l-.93.49a.72.72,0,0,0-.25-.31.81.81,0,0,0-.39-.1.64.64,0,0,0-.51.22,1,1,0,0,0-.18.63V227h2.28Zm-1.22,0h-.68v-.38a.38.38,0,0,1,.09-.28.36.36,0,0,1,.26-.1.33.33,0,0,1,.24.1.41.41,0,0,1,.09.28Z"/><polygon class="cls-2" points="45.32 224.5 47.22 224.5 47.22 224.02 45.32 224.02 45.32 223.32 44.94 223.32 44.94 225.19 45.32 225.19 45.32 224.5"/><path class="cls-2" d="M121.31,232.55a.59.59,0,0,0-.44.18,1.4,1.4,0,0,0-.3.59,1.28,1.28,0,0,1-.15.33.22.22,0,0,1-.18.11.21.21,0,0,1-.19-.1.41.41,0,0,1-.08-.27.37.37,0,0,1,.09-.27.3.3,0,0,1,.24-.1v-.47a.63.63,0,0,0-.36.1.68.68,0,0,0-.25.3,1,1,0,0,0-.09.44,1.08,1.08,0,0,0,.08.44.57.57,0,0,0,.23.29.52.52,0,0,0,.33.11.63.63,0,0,0,.56-.39,2.2,2.2,0,0,0,.16-.39,1.24,1.24,0,0,1,.15-.34.26.26,0,0,1,.21-.09.23.23,0,0,1,.19.09.51.51,0,0,1,.06.27c0,.3-.12.45-.37.45v.47a.77.77,0,0,0,.39-.11.78.78,0,0,0,.26-.33,1.29,1.29,0,0,0,.1-.48,1,1,0,0,0-.17-.61A.56.56,0,0,0,121.31,232.55Z"/><polygon class="cls-2" points="121.92 230.84 121.92 230.37 119.63 230.37 119.63 230.84 120.56 230.84 120.56 231.76 119.63 231.76 119.63 232.23 121.92 232.23 121.92 231.76 120.94 231.76 120.94 230.84 121.92 230.84"/><path class="cls-2" d="M120.13,229.9a1.25,1.25,0,0,0,.59.13h.12a1.5,1.5,0,0,0,.58-.13.93.93,0,0,0,.39-.34,1,1,0,0,0,0-1,.87.87,0,0,0-.39-.34,1.4,1.4,0,0,0-.6-.12h-.1a1.38,1.38,0,0,0-.59.12.93.93,0,0,0-.39.34,1,1,0,0,0,0,1A.87.87,0,0,0,120.13,229.9Zm0-1.22a1,1,0,0,1,.55-.12h.11a1,1,0,0,1,.54.12.46.46,0,0,1,0,.74,1,1,0,0,1-.55.13h-.11a1,1,0,0,1-.54-.13.47.47,0,0,1,0-.74Z"/><path class="cls-2" d="M121.91,227.27h-.83v-.38l.83-.43V226h0l-.93.49a.72.72,0,0,0-.25-.31.75.75,0,0,0-.39-.1.64.64,0,0,0-.51.22,1,1,0,0,0-.18.63v.85h2.28Zm-1.21,0H120v-.38a.38.38,0,0,1,.09-.28.33.33,0,0,1,.26-.1.36.36,0,0,1,.25.1.41.41,0,0,1,.09.28Z"/><polygon class="cls-2" points="120.01 225.21 121.92 225.21 121.92 224.74 120.01 224.74 120.01 224.04 119.63 224.04 119.63 225.9 120.01 225.9 120.01 225.21"/><polygon class="cls-2" points="51.25 239.18 50.86 239.18 50.86 241.04 51.25 241.04 51.25 240.35 53.15 240.35 53.15 239.88 51.25 239.88 51.25 239.18"/><path class="cls-2" d="M50.86,238.44l2.29.85v-.5l-.47-.16v-.83l.47-.15v-.51l-2.29.86Zm1.44-.51v.57l-.86-.28Z"/><polygon class="cls-2" points="52.77 236.46 50.86 236.46 50.86 236.93 53.15 236.93 53.15 235.46 52.77 235.46 52.77 236.46"/><polygon class="cls-2" points="50.86 233.35 50.86 233.93 51.62 234.51 51.9 234.72 50.86 234.72 50.86 235.19 53.15 235.19 53.15 234.72 52.5 234.72 52.23 234.47 53.15 233.89 53.15 233.33 51.88 234.16 50.86 233.35"/><path class="cls-2" d="M52.55,230.69a.61.61,0,0,0-.45.18,1.47,1.47,0,0,0-.3.59,1,1,0,0,1-.14.33.21.21,0,0,1-.19.11.23.23,0,0,1-.19-.09.45.45,0,0,1-.07-.27.41.41,0,0,1,.09-.28.27.27,0,0,1,.24-.1v-.47a.67.67,0,0,0-.37.11.71.71,0,0,0-.25.29,1,1,0,0,0-.09.44,1.23,1.23,0,0,0,.08.44.71.71,0,0,0,.23.3.56.56,0,0,0,.33.1A.64.64,0,0,0,52,232a2.14,2.14,0,0,0,.15-.38,1.2,1.2,0,0,1,.16-.34.21.21,0,0,1,.2-.1.21.21,0,0,1,.19.1.4.4,0,0,1,.07.26c0,.3-.13.45-.38.45v.47a.64.64,0,0,0,.39-.11.73.73,0,0,0,.26-.33,1.06,1.06,0,0,0,.1-.48.93.93,0,0,0-.17-.6A.54.54,0,0,0,52.55,230.69Z"/><polygon class="cls-2" points="53.15 228.98 53.15 228.51 50.86 228.51 50.86 228.98 51.79 228.98 51.79 229.9 50.86 229.9 50.86 230.37 53.15 230.37 53.15 229.9 52.17 229.9 52.17 228.98 53.15 228.98"/><path class="cls-2" d="M51.36,228.05a1.43,1.43,0,0,0,.6.12h.11a1.31,1.31,0,0,0,.58-.12,1,1,0,0,0,.39-.35,1,1,0,0,0,0-1,.93.93,0,0,0-.39-.34,1.38,1.38,0,0,0-.59-.12H52a1.43,1.43,0,0,0-.6.12,1,1,0,0,0-.39.35,1,1,0,0,0-.14.51.92.92,0,0,0,.14.5A.89.89,0,0,0,51.36,228.05Zm0-1.22a.93.93,0,0,1,.55-.13h.11a.92.92,0,0,1,.54.13.42.42,0,0,1,.19.36.42.42,0,0,1-.2.37.94.94,0,0,1-.54.13H52a.9.9,0,0,1-.54-.13.4.4,0,0,1-.19-.36A.41.41,0,0,1,51.41,226.83Z"/><polygon class="cls-2" points="53.15 225.05 51.62 224.68 53.15 224.31 53.15 223.83 50.86 223.32 50.86 223.79 52.49 224.1 50.86 224.48 50.86 224.87 52.49 225.25 50.86 225.56 50.86 226.03 53.15 225.52 53.15 225.05"/><polygon class="cls-2" points="184.98 239.18 184.6 239.18 184.6 241.04 184.98 241.04 184.98 240.35 186.88 240.35 186.88 239.88 184.98 239.88 184.98 239.18"/><path class="cls-2" d="M184.6,238.44l2.28.85v-.5l-.47-.16v-.83l.47-.15v-.51l-2.28.86Zm1.43-.51v.57l-.86-.28Z"/><polygon class="cls-2" points="186.5 236.46 184.6 236.46 184.6 236.93 186.88 236.93 186.88 235.46 186.5 235.46 186.5 236.46"/><polygon class="cls-2" points="184.6 233.35 184.6 233.93 185.35 234.51 185.63 234.72 184.6 234.72 184.6 235.19 186.88 235.19 186.88 234.72 186.23 234.72 185.97 234.47 186.88 233.89 186.88 233.33 185.61 234.16 184.6 233.35"/><path class="cls-2" d="M186.28,230.69a.61.61,0,0,0-.45.18,1.47,1.47,0,0,0-.3.59,1,1,0,0,1-.14.33.2.2,0,0,1-.18.11.25.25,0,0,1-.2-.09.45.45,0,0,1-.07-.27.41.41,0,0,1,.09-.28.3.3,0,0,1,.24-.1v-.47a.67.67,0,0,0-.37.11.79.79,0,0,0-.25.29,1.12,1.12,0,0,0,0,.88.69.69,0,0,0,.22.3.56.56,0,0,0,.33.1.64.64,0,0,0,.57-.39,3.11,3.11,0,0,0,.16-.38,1,1,0,0,1,.15-.34.22.22,0,0,1,.2-.1.21.21,0,0,1,.19.1.4.4,0,0,1,.07.26c0,.3-.12.45-.38.45v.47a.64.64,0,0,0,.39-.11.82.82,0,0,0,.27-.33,1.21,1.21,0,0,0,.09-.48.93.93,0,0,0-.17-.6A.54.54,0,0,0,186.28,230.69Z"/><polygon class="cls-2" points="186.88 228.98 186.88 228.51 184.6 228.51 184.6 228.98 185.52 228.98 185.52 229.9 184.6 229.9 184.6 230.37 186.88 230.37 186.88 229.9 185.9 229.9 185.9 228.98 186.88 228.98"/><path class="cls-2" d="M185.1,228.05a1.38,1.38,0,0,0,.59.12h.11a1.38,1.38,0,0,0,.59-.12,1,1,0,0,0,.39-.35,1.07,1.07,0,0,0,0-1,1,1,0,0,0-.4-.34,1.35,1.35,0,0,0-.59-.12h-.1a1.38,1.38,0,0,0-.59.12.92.92,0,0,0-.54.86.92.92,0,0,0,.54.85Zm0-1.22a1,1,0,0,1,.55-.13h.11a.9.9,0,0,1,.54.13.4.4,0,0,1,.19.36.42.42,0,0,1-.2.37.92.92,0,0,1-.54.13h-.11a.9.9,0,0,1-.54-.13.42.42,0,0,1-.19-.36A.43.43,0,0,1,185.14,226.83Z"/><polygon class="cls-2" points="186.88 225.05 185.35 224.68 186.88 224.31 186.88 223.83 184.6 223.32 184.6 223.79 186.22 224.1 184.6 224.48 184.6 224.87 186.22 225.25 184.6 225.56 184.6 226.03 186.88 225.52 186.88 225.05"/><polygon class="cls-2" points="57.68 236.76 57.3 236.76 57.3 238.62 57.68 238.62 57.68 237.93 59.59 237.93 59.59 237.46 57.68 237.46 57.68 236.76"/><polygon class="cls-2" points="57.3 235.1 59.02 235.62 57.3 236.14 57.3 236.66 59.59 235.87 59.59 235.38 57.3 234.58 57.3 235.1"/><path class="cls-2" d="M59,231.91a.61.61,0,0,0-.45.18,1.4,1.4,0,0,0-.3.59,1.3,1.3,0,0,1-.14.33.23.23,0,0,1-.19.11.22.22,0,0,1-.19-.1.52.52,0,0,1,0-.54.3.3,0,0,1,.25-.1v-.47a.66.66,0,0,0-.37.1.68.68,0,0,0-.25.3,1,1,0,0,0-.09.44,1.18,1.18,0,0,0,.08.43.65.65,0,0,0,.23.3.57.57,0,0,0,.33.11.64.64,0,0,0,.57-.39,2.29,2.29,0,0,0,.15-.39,2.47,2.47,0,0,1,.15-.34.26.26,0,0,1,.21-.09.23.23,0,0,1,.19.09.42.42,0,0,1,.07.26c0,.31-.13.46-.38.46v.47a.71.71,0,0,0,.39-.11.78.78,0,0,0,.26-.33,1.13,1.13,0,0,0,.1-.49,1,1,0,0,0-.17-.6A.54.54,0,0,0,59,231.91Z"/><polygon class="cls-2" points="57.3 230.06 57.3 231.59 59.59 231.59 59.59 230.06 59.21 230.06 59.21 231.12 58.6 231.12 58.6 230.21 58.23 230.21 58.23 231.12 57.68 231.12 57.68 230.06 57.3 230.06"/><path class="cls-2" d="M59.59,228.5V228h0l-.94.49a.63.63,0,0,0-.25-.3.67.67,0,0,0-.39-.11.64.64,0,0,0-.51.22,1,1,0,0,0-.18.63v.85h2.29v-.47h-.84v-.38Zm-1.22.81h-.69v-.38a.38.38,0,0,1,.1-.28.39.39,0,0,1,.5,0,.41.41,0,0,1,.09.28Z"/><rect class="cls-2" x="57.3" y="227.23" width="2.29" height="0.47"/><polygon class="cls-2" points="59.59 225.26 59.21 225.26 59.21 226.32 58.6 226.32 58.6 225.41 58.23 225.41 58.23 226.32 57.68 226.32 57.68 225.26 57.3 225.26 57.3 226.79 59.59 226.79 59.59 225.26"/><path class="cls-2" d="M57.58,224.9a.57.57,0,0,0,.33.11.64.64,0,0,0,.57-.39,2.68,2.68,0,0,0,.15-.39,2,2,0,0,1,.15-.34.26.26,0,0,1,.21-.09.23.23,0,0,1,.19.09.4.4,0,0,1,.07.26c0,.3-.13.45-.38.45v.48a.65.65,0,0,0,.39-.12.68.68,0,0,0,.26-.33,1.06,1.06,0,0,0,.1-.48,1,1,0,0,0-.17-.6.55.55,0,0,0-.46-.23.58.58,0,0,0-.45.19,1.36,1.36,0,0,0-.3.58,1,1,0,0,1-.14.33.22.22,0,0,1-.19.12.24.24,0,0,1-.19-.1.41.41,0,0,1-.07-.27.47.47,0,0,1,.08-.28.34.34,0,0,1,.25-.1v-.47a.67.67,0,0,0-.62.41,1,1,0,0,0-.09.43,1.19,1.19,0,0,0,.08.44A.71.71,0,0,0,57.58,224.9Z"/><polygon class="cls-2" points="104.17 237.48 103.79 237.48 103.79 239.34 104.17 239.34 104.17 238.65 106.08 238.65 106.08 238.18 104.17 238.18 104.17 237.48"/><polygon class="cls-2" points="103.79 235.82 105.51 236.34 103.79 236.86 103.79 237.38 106.08 236.59 106.08 236.09 103.79 235.3 103.79 235.82"/><path class="cls-2" d="M105.47,232.63a.6.6,0,0,0-.44.18,1.42,1.42,0,0,0-.3.58,1.67,1.67,0,0,1-.14.34.24.24,0,0,1-.19.11.22.22,0,0,1-.19-.1.41.41,0,0,1-.07-.27.41.41,0,0,1,.08-.28.33.33,0,0,1,.25-.09v-.47a.66.66,0,0,0-.37.1.68.68,0,0,0-.25.3,1,1,0,0,0-.09.43,1.19,1.19,0,0,0,.08.44.71.71,0,0,0,.23.3.57.57,0,0,0,.33.11.64.64,0,0,0,.57-.39,2.68,2.68,0,0,0,.15-.39,1.43,1.43,0,0,1,.15-.34.26.26,0,0,1,.21-.09.23.23,0,0,1,.19.09.47.47,0,0,1,.07.26c0,.31-.13.46-.38.46v.47a.71.71,0,0,0,.39-.11.76.76,0,0,0,.26-.34,1.06,1.06,0,0,0,.1-.48,1,1,0,0,0-.17-.6A.55.55,0,0,0,105.47,232.63Z"/><polygon class="cls-2" points="103.79 230.78 103.79 232.31 106.08 232.31 106.08 230.77 105.7 230.77 105.7 231.84 105.09 231.84 105.09 230.93 104.72 230.93 104.72 231.84 104.17 231.84 104.17 230.78 103.79 230.78"/><path class="cls-2" d="M106.08,229.22v-.5h0l-.94.49a.65.65,0,0,0-.25-.31.75.75,0,0,0-.39-.1.64.64,0,0,0-.51.22,1,1,0,0,0-.18.63v.85h2.29V230h-.84v-.38Zm-1.22.81h-.69v-.38a.34.34,0,0,1,.1-.28.36.36,0,0,1,.5,0,.41.41,0,0,1,.09.28Z"/><rect class="cls-2" x="103.79" y="227.95" width="2.29" height="0.47"/><polygon class="cls-2" points="106.08 225.98 105.7 225.98 105.7 227.04 105.09 227.04 105.09 226.13 104.72 226.13 104.72 227.04 104.17 227.04 104.17 225.98 103.79 225.98 103.79 227.51 106.08 227.51 106.08 225.98"/><path class="cls-2" d="M104.07,225.62a.57.57,0,0,0,.33.11.64.64,0,0,0,.57-.39,2.68,2.68,0,0,0,.15-.39,1.25,1.25,0,0,1,.15-.34.27.27,0,0,1,.21-.1.24.24,0,0,1,.19.1.47.47,0,0,1,.07.26c0,.3-.13.45-.38.45v.48a.65.65,0,0,0,.39-.12.68.68,0,0,0,.26-.33,1.06,1.06,0,0,0,.1-.48,1,1,0,0,0-.17-.6.56.56,0,0,0-.47-.23.58.58,0,0,0-.44.19,1.36,1.36,0,0,0-.3.58,1.34,1.34,0,0,1-.14.33.22.22,0,0,1-.19.11.23.23,0,0,1-.19-.09.43.43,0,0,1-.07-.27.41.41,0,0,1,.08-.28.34.34,0,0,1,.25-.1V224a.67.67,0,0,0-.62.41,1,1,0,0,0-.09.43,1.23,1.23,0,0,0,.08.44A.71.71,0,0,0,104.07,225.62Z"/><polygon class="cls-2" points="154.4 237.48 154.02 237.48 154.02 239.34 154.4 239.34 154.4 238.65 156.31 238.65 156.31 238.18 154.4 238.18 154.4 237.48"/><polygon class="cls-2" points="154.02 235.82 155.74 236.34 154.02 236.86 154.02 237.38 156.31 236.59 156.31 236.09 154.02 235.3 154.02 235.82"/><path class="cls-2" d="M155.7,232.63a.6.6,0,0,0-.44.18,1.42,1.42,0,0,0-.3.58,1.24,1.24,0,0,1-.14.34.23.23,0,0,1-.19.11.22.22,0,0,1-.19-.1.41.41,0,0,1-.07-.27.41.41,0,0,1,.08-.28.33.33,0,0,1,.25-.09v-.47a.66.66,0,0,0-.37.1.68.68,0,0,0-.25.3,1,1,0,0,0-.09.43,1.19,1.19,0,0,0,.08.44.71.71,0,0,0,.23.3.57.57,0,0,0,.33.11.64.64,0,0,0,.57-.39,2.68,2.68,0,0,0,.15-.39,2,2,0,0,1,.15-.34.26.26,0,0,1,.21-.09.23.23,0,0,1,.19.09.47.47,0,0,1,.07.26c0,.31-.13.46-.38.46v.47a.71.71,0,0,0,.39-.11.76.76,0,0,0,.26-.34,1.06,1.06,0,0,0,.1-.48,1,1,0,0,0-.17-.6A.55.55,0,0,0,155.7,232.63Z"/><polygon class="cls-2" points="154.02 230.78 154.02 232.31 156.31 232.31 156.31 230.77 155.93 230.77 155.93 231.84 155.32 231.84 155.32 230.93 154.95 230.93 154.95 231.84 154.4 231.84 154.4 230.78 154.02 230.78"/><path class="cls-2" d="M156.31,229.22v-.5h0l-.94.49a.65.65,0,0,0-.25-.31.75.75,0,0,0-.39-.1.64.64,0,0,0-.51.22,1,1,0,0,0-.18.63v.85h2.29V230h-.84v-.38Zm-1.22.81h-.69v-.38a.34.34,0,0,1,.1-.28.36.36,0,0,1,.5,0,.41.41,0,0,1,.09.28Z"/><rect class="cls-2" x="154.02" y="227.95" width="2.29" height="0.47"/><polygon class="cls-2" points="156.31 225.98 155.93 225.98 155.93 227.04 155.32 227.04 155.32 226.13 154.95 226.13 154.95 227.04 154.4 227.04 154.4 225.98 154.02 225.98 154.02 227.51 156.31 227.51 156.31 225.98"/><path class="cls-2" d="M154.3,225.62a.57.57,0,0,0,.33.11.64.64,0,0,0,.57-.39,2.68,2.68,0,0,0,.15-.39,1.68,1.68,0,0,1,.15-.34.27.27,0,0,1,.21-.1.24.24,0,0,1,.19.1.47.47,0,0,1,.07.26c0,.3-.13.45-.38.45v.48a.65.65,0,0,0,.39-.12.68.68,0,0,0,.26-.33,1.06,1.06,0,0,0,.1-.48,1,1,0,0,0-.17-.6.56.56,0,0,0-.47-.23.58.58,0,0,0-.44.19,1.36,1.36,0,0,0-.3.58,1,1,0,0,1-.14.33.21.21,0,0,1-.19.11.23.23,0,0,1-.19-.09.43.43,0,0,1-.07-.27.41.41,0,0,1,.08-.28.34.34,0,0,1,.25-.1V224a.67.67,0,0,0-.62.41,1,1,0,0,0-.09.43,1.23,1.23,0,0,0,.08.44A.71.71,0,0,0,154.3,225.62Z"/><polygon class="cls-2" points="63.64 236.09 63.26 236.09 63.26 237.96 63.64 237.96 63.64 237.26 65.55 237.26 65.55 236.79 63.64 236.79 63.64 236.09"/><polygon class="cls-2" points="63.26 234.44 64.98 234.96 63.26 235.47 63.26 235.99 65.55 235.2 65.55 234.71 63.26 233.91 63.26 234.44"/><polygon class="cls-2" points="63.26 231.11 64.92 231.69 63.26 232.28 63.26 232.9 65.55 232.9 65.55 232.43 64.92 232.43 63.84 232.47 65.55 231.86 65.55 231.53 63.84 230.92 64.92 230.96 65.55 230.96 65.55 230.49 63.26 230.49 63.26 231.11"/><path class="cls-2" d="M63.76,230a1.38,1.38,0,0,0,.59.12h.12a1.34,1.34,0,0,0,.58-.12,1,1,0,0,0,.39-.35,1,1,0,0,0,0-1,.93.93,0,0,0-.39-.34,1.4,1.4,0,0,0-.6-.12h-.1a1.38,1.38,0,0,0-.59.12,1,1,0,0,0-.39.35.89.89,0,0,0-.14.51.84.84,0,0,0,.14.5A.89.89,0,0,0,63.76,230Zm0-1.22a1,1,0,0,1,.55-.13h.11a1,1,0,0,1,.55.13.45.45,0,0,1,0,.73,1,1,0,0,1-.55.13h-.11a.94.94,0,0,1-.54-.13.42.42,0,0,1-.18-.36A.42.42,0,0,1,63.8,228.81Z"/><polygon class="cls-2" points="65.55 226.8 63.26 226.01 63.26 226.53 64.98 227.05 63.26 227.56 63.26 228.09 65.55 227.29 65.55 226.8"/><rect class="cls-2" x="63.26" y="225.29" width="2.29" height="0.47"/><polygon class="cls-2" points="65.55 223.32 65.17 223.32 65.17 224.38 64.56 224.38 64.56 223.48 64.19 223.48 64.19 224.38 63.64 224.38 63.64 223.33 63.26 223.33 63.26 224.86 65.55 224.86 65.55 223.32"/><polygon class="cls-2" points="191.56 236.09 191.18 236.09 191.18 237.96 191.56 237.96 191.56 237.26 193.47 237.26 193.47 236.79 191.56 236.79 191.56 236.09"/><polygon class="cls-2" points="191.18 234.44 192.9 234.96 191.18 235.47 191.18 235.99 193.47 235.2 193.47 234.71 191.18 233.91 191.18 234.44"/><polygon class="cls-2" points="191.18 231.11 192.84 231.69 191.18 232.28 191.18 232.9 193.47 232.9 193.47 232.43 192.84 232.43 191.76 232.47 193.47 231.86 193.47 231.53 191.76 230.92 192.84 230.96 193.47 230.96 193.47 230.49 191.18 230.49 191.18 231.11"/><path class="cls-2" d="M191.68,230a1.38,1.38,0,0,0,.59.12h.12A1.34,1.34,0,0,0,193,230a1,1,0,0,0,.39-.35,1,1,0,0,0,0-1,.93.93,0,0,0-.39-.34,1.4,1.4,0,0,0-.6-.12h-.1a1.38,1.38,0,0,0-.59.12,1,1,0,0,0-.39.35.89.89,0,0,0-.14.51.84.84,0,0,0,.14.5A.89.89,0,0,0,191.68,230Zm0-1.22a1,1,0,0,1,.55-.13h.11a.9.9,0,0,1,.54.13.39.39,0,0,1,.19.36.41.41,0,0,1-.19.37,1,1,0,0,1-.55.13h-.11a.94.94,0,0,1-.54-.13.42.42,0,0,1-.18-.36A.42.42,0,0,1,191.72,228.81Z"/><polygon class="cls-2" points="193.47 226.8 191.18 226.01 191.18 226.53 192.9 227.05 191.18 227.56 191.18 228.09 193.47 227.29 193.47 226.8"/><rect class="cls-2" x="191.18" y="225.29" width="2.29" height="0.47"/><polygon class="cls-2" points="193.47 223.32 193.09 223.32 193.09 224.38 192.47 224.38 192.47 223.48 192.11 223.48 192.11 224.38 191.56 224.38 191.56 223.33 191.18 223.33 191.18 224.86 193.47 224.86 193.47 223.32"/><polygon class="cls-2" points="114.26 236.81 113.88 236.81 113.88 238.67 114.26 238.67 114.26 237.98 116.17 237.98 116.17 237.51 114.26 237.51 114.26 236.81"/><polygon class="cls-2" points="113.88 235.16 115.6 235.67 113.88 236.19 113.88 236.71 116.17 235.92 116.17 235.43 113.88 234.63 113.88 235.16"/><polygon class="cls-2" points="113.88 231.83 115.54 232.41 113.88 233 113.88 233.62 116.17 233.62 116.17 233.15 115.54 233.15 114.47 233.19 116.17 232.58 116.17 232.25 114.46 231.64 115.54 231.68 116.17 231.68 116.17 231.21 113.88 231.21 113.88 231.83"/><path class="cls-2" d="M114.38,230.75a1.4,1.4,0,0,0,.6.12h.11a1.21,1.21,0,0,0,.58-.13.87.87,0,0,0,.39-.34,1,1,0,0,0,0-1,.87.87,0,0,0-.39-.34,1.38,1.38,0,0,0-.59-.12H115a1.38,1.38,0,0,0-.59.12.89.89,0,0,0-.39.35,1,1,0,0,0-.14.51.92.92,0,0,0,.14.5A.89.89,0,0,0,114.38,230.75Zm.05-1.22a.9.9,0,0,1,.54-.13h.11a1,1,0,0,1,.55.13.45.45,0,0,1,0,.73.94.94,0,0,1-.54.13H115a.94.94,0,0,1-.54-.13.42.42,0,0,1-.18-.36A.41.41,0,0,1,114.43,229.53Z"/><polygon class="cls-2" points="116.17 227.52 113.88 226.73 113.88 227.25 115.6 227.77 113.88 228.28 113.88 228.81 116.17 228.01 116.17 227.52"/><rect class="cls-2" x="113.88" y="226.01" width="2.29" height="0.47"/><polygon class="cls-2" points="116.17 224.04 115.79 224.04 115.79 225.1 115.18 225.1 115.18 224.2 114.81 224.2 114.81 225.1 114.26 225.1 114.26 224.05 113.88 224.05 113.88 225.57 116.17 225.57 116.17 224.04"/><path class="cls-2" d="M27.53,244.85a1.13,1.13,0,0,0-.56-.13h-.11a1.2,1.2,0,0,0-.57.13,1.07,1.07,0,0,0-.39.37,1.08,1.08,0,0,0-.13.54v.71h2.28v-.71a1.08,1.08,0,0,0-.13-.54A.93.93,0,0,0,27.53,244.85Zm.15,1.15H26.15v-.24a.52.52,0,0,1,.18-.42.82.82,0,0,1,.53-.14H27a.81.81,0,0,1,.52.15.49.49,0,0,1,.18.42Z"/><path class="cls-2" d="M27.56,242.62a1.4,1.4,0,0,0-.6-.12h-.1a1.38,1.38,0,0,0-.59.12,1,1,0,0,0-.4.35.91.91,0,0,0-.13.5,1,1,0,0,0,.13.51,1,1,0,0,0,.4.34,1.25,1.25,0,0,0,.59.13H27a1.34,1.34,0,0,0,.58-.13A.87.87,0,0,0,28,244a1,1,0,0,0,0-1A.87.87,0,0,0,27.56,242.62Zm0,1.22A1,1,0,0,1,27,244h-.11a1,1,0,0,1-.54-.13.43.43,0,0,1-.18-.37.4.4,0,0,1,.18-.36,1,1,0,0,1,.55-.13H27a.9.9,0,0,1,.54.13.39.39,0,0,1,.19.36A.42.42,0,0,1,27.51,243.84Z"/><path class="cls-2" d="M27.29,240.36v.47a.45.45,0,0,1,.31.13.44.44,0,0,1,.1.32.42.42,0,0,1-.17.36,1,1,0,0,1-.54.11h-.17a.94.94,0,0,1-.53-.12.41.41,0,0,1-.17-.35.52.52,0,0,1,.1-.33.49.49,0,0,1,.32-.12v-.47a.89.89,0,0,0-.59.28,1.06,1.06,0,0,0-.08,1.14.91.91,0,0,0,.39.33,1.31,1.31,0,0,0,.58.12H27a1.21,1.21,0,0,0,.81-.26.83.83,0,0,0,.3-.69.91.91,0,0,0-.22-.64A.79.79,0,0,0,27.29,240.36Z"/><path class="cls-2" d="M27.87,239.84a.89.89,0,0,0,.22-.64.94.94,0,0,0-.22-.64.78.78,0,0,0-.6-.24h-1.5v.48h1.52c.28,0,.42.13.42.4a.37.37,0,0,1-.43.4H25.77v.48h1.52A.8.8,0,0,0,27.87,239.84Z"/><polygon class="cls-2" points="28.05 237.47 27.43 237.47 26.35 237.51 28.05 236.9 28.05 236.57 26.35 235.96 27.43 236 28.05 236 28.05 235.53 25.77 235.53 25.77 236.15 27.43 236.74 25.77 237.32 25.77 237.94 28.05 237.94 28.05 237.47"/><polygon class="cls-2" points="28.05 233.59 27.68 233.59 27.68 234.65 27.06 234.65 27.06 233.75 26.7 233.75 26.7 234.65 26.15 234.65 26.15 233.59 25.77 233.59 25.77 235.12 28.05 235.12 28.05 233.59"/><polygon class="cls-2" points="28.05 232.84 26.55 232.84 28.05 231.93 28.05 231.45 25.77 231.45 25.77 231.92 27.28 231.92 25.77 232.84 25.77 233.31 28.05 233.31 28.05 232.84"/><polygon class="cls-2" points="26.15 230.49 28.05 230.49 28.05 230.02 26.15 230.02 26.15 229.32 25.77 229.32 25.77 231.18 26.15 231.18 26.15 230.49"/><path class="cls-2" d="M28.05,228.93l-.47-.15V228l.47-.16v-.5l-2.28.86v.43l2.28.86Zm-.85-.28-.85-.28.85-.29Z"/><path class="cls-2" d="M28.05,226.61h-.83v-.38l.83-.43v-.5h0l-.93.49a.69.69,0,0,0-.25-.3.67.67,0,0,0-.39-.11.64.64,0,0,0-.51.22,1,1,0,0,0-.18.63v.85h2.28Zm-1.21,0h-.69v-.38a.38.38,0,0,1,.09-.28.36.36,0,0,1,.26-.09.35.35,0,0,1,.25.09.41.41,0,0,1,.09.28Z"/><polygon class="cls-2" points="28.05 224.55 28.05 224.07 27.23 224.07 25.77 223.32 25.77 223.84 26.8 224.31 25.77 224.79 25.77 225.3 27.23 224.55 28.05 224.55"/><path class="cls-2" d="M174,244.85a1.13,1.13,0,0,0-.56-.13h-.11a1.2,1.2,0,0,0-.57.13,1,1,0,0,0-.38.37,1,1,0,0,0-.14.54v.71h2.29v-.71a1.2,1.2,0,0,0-.14-.54A.93.93,0,0,0,174,244.85Zm.15,1.15h-1.53v-.24a.52.52,0,0,1,.18-.42.82.82,0,0,1,.53-.14h.12a.81.81,0,0,1,.52.15.49.49,0,0,1,.18.42Z"/><path class="cls-2" d="M174.06,242.62a1.4,1.4,0,0,0-.6-.12h-.1a1.38,1.38,0,0,0-.59.12.89.89,0,0,0-.39.35.84.84,0,0,0-.14.5.89.89,0,0,0,.14.51.87.87,0,0,0,.39.34,1.25,1.25,0,0,0,.59.13h.12a1.34,1.34,0,0,0,.58-.13.87.87,0,0,0,.39-.34,1,1,0,0,0,0-1A.87.87,0,0,0,174.06,242.62Zm-.05,1.22a1,1,0,0,1-.55.13h-.11a1,1,0,0,1-.54-.13.43.43,0,0,1-.18-.37.4.4,0,0,1,.18-.36,1,1,0,0,1,.55-.13h.11a.9.9,0,0,1,.54.13.39.39,0,0,1,.19.36A.42.42,0,0,1,174,243.84Z"/><path class="cls-2" d="M173.79,240.36v.47a.45.45,0,0,1,.31.13.44.44,0,0,1,.1.32.42.42,0,0,1-.17.36,1,1,0,0,1-.54.11h-.17a.94.94,0,0,1-.53-.12.41.41,0,0,1-.17-.35.52.52,0,0,1,.1-.33.5.5,0,0,1,.33-.12v-.47a.9.9,0,0,0-.6.28,1.06,1.06,0,0,0-.08,1.14.91.91,0,0,0,.39.33,1.34,1.34,0,0,0,.58.12h.14a1.21,1.21,0,0,0,.81-.26.83.83,0,0,0,.3-.69.91.91,0,0,0-.22-.64A.79.79,0,0,0,173.79,240.36Z"/><path class="cls-2" d="M174.37,239.84a.89.89,0,0,0,.22-.64.94.94,0,0,0-.22-.64.77.77,0,0,0-.6-.24h-1.5v.48h1.52c.28,0,.42.13.42.4a.36.36,0,0,1-.43.4h-1.51v.48h1.52A.8.8,0,0,0,174.37,239.84Z"/><polygon class="cls-2" points="174.56 237.47 173.93 237.47 172.85 237.51 174.56 236.9 174.56 236.57 172.85 235.96 173.93 236 174.56 236 174.56 235.53 172.27 235.53 172.27 236.15 173.93 236.74 172.27 237.32 172.27 237.94 174.56 237.94 174.56 237.47"/><polygon class="cls-2" points="174.56 233.59 174.18 233.59 174.18 234.65 173.56 234.65 173.56 233.75 173.2 233.75 173.2 234.65 172.65 234.65 172.65 233.59 172.27 233.59 172.27 235.12 174.56 235.12 174.56 233.59"/><polygon class="cls-2" points="174.56 232.84 173.05 232.84 174.56 231.93 174.56 231.45 172.27 231.45 172.27 231.92 173.78 231.92 172.27 232.84 172.27 233.31 174.56 233.31 174.56 232.84"/><polygon class="cls-2" points="172.65 230.49 174.56 230.49 174.56 230.02 172.65 230.02 172.65 229.32 172.27 229.32 172.27 231.18 172.65 231.18 172.65 230.49"/><path class="cls-2" d="M174.56,228.93l-.48-.15V228l.48-.16v-.5l-2.29.86v.43l2.29.86Zm-.86-.28-.85-.28.85-.29Z"/><path class="cls-2" d="M174.56,226.61h-.84v-.38l.84-.43v-.5h0l-.93.49a.69.69,0,0,0-.25-.3.67.67,0,0,0-.39-.11.64.64,0,0,0-.51.22,1,1,0,0,0-.18.63v.85h2.29Zm-1.22,0h-.69v-.38a.32.32,0,0,1,.35-.37.35.35,0,0,1,.25.09.41.41,0,0,1,.09.28Z"/><polygon class="cls-2" points="174.56 224.55 174.56 224.07 173.73 224.07 172.27 223.32 172.27 223.84 173.3 224.31 172.27 224.79 172.27 225.3 173.73 224.55 174.56 224.55"/><path class="cls-2" d="M110.84,245.57a1.14,1.14,0,0,0-.57-.13h-.1a1.2,1.2,0,0,0-.57.13.93.93,0,0,0-.39.37,1.08,1.08,0,0,0-.13.54v.71h2.28v-.71a1.08,1.08,0,0,0-.13-.54A1,1,0,0,0,110.84,245.57Zm.15,1.14h-1.53v-.23a.52.52,0,0,1,.18-.42.82.82,0,0,1,.53-.14h.12a.89.89,0,0,1,.52.14.52.52,0,0,1,.18.43Z"/><path class="cls-2" d="M110.86,243.34a1.32,1.32,0,0,0-.59-.12h-.1a1.38,1.38,0,0,0-.59.12,1,1,0,0,0-.4.34,1.07,1.07,0,0,0,0,1,1,1,0,0,0,.4.34,1.25,1.25,0,0,0,.59.13h.12a1.5,1.5,0,0,0,.58-.13.93.93,0,0,0,.39-.34,1,1,0,0,0,0-1A.89.89,0,0,0,110.86,243.34Zm0,1.22a1,1,0,0,1-.55.13h-.11a1,1,0,0,1-.54-.13.47.47,0,0,1,0-.74,1,1,0,0,1,.55-.12h.11a1,1,0,0,1,.54.12.42.42,0,0,1,.19.37A.44.44,0,0,1,110.82,244.56Z"/><path class="cls-2" d="M110.6,241.08v.47a.47.47,0,0,1,.31.13.44.44,0,0,1,.1.32.42.42,0,0,1-.17.36,1,1,0,0,1-.54.11h-.17a.92.92,0,0,1-.53-.12.41.41,0,0,1-.17-.35.5.5,0,0,1,.1-.33.49.49,0,0,1,.32-.12v-.47a.85.85,0,0,0-.59.28,1.06,1.06,0,0,0-.08,1.14.91.91,0,0,0,.39.33,1.31,1.31,0,0,0,.58.12h.14a1.21,1.21,0,0,0,.81-.26.83.83,0,0,0,.3-.69,1,1,0,0,0-.22-.65A.82.82,0,0,0,110.6,241.08Z"/><path class="cls-2" d="M111.18,240.55a.89.89,0,0,0,.22-.63.92.92,0,0,0-.22-.64.78.78,0,0,0-.6-.24h-1.5v.48h1.52c.28,0,.42.13.42.4a.37.37,0,0,1-.43.4h-1.51v.47h1.52A.73.73,0,0,0,111.18,240.55Z"/><polygon class="cls-2" points="111.36 238.19 110.74 238.19 109.66 238.23 111.36 237.62 111.36 237.29 109.66 236.68 110.74 236.72 111.36 236.72 111.36 236.25 109.08 236.25 109.08 236.87 110.74 237.45 109.08 238.04 109.08 238.66 111.36 238.66 111.36 238.19"/><polygon class="cls-2" points="111.36 234.31 110.99 234.31 110.99 235.37 110.37 235.37 110.37 234.47 110 234.47 110 235.37 109.46 235.37 109.46 234.31 109.08 234.31 109.08 235.84 111.36 235.84 111.36 234.31"/><polygon class="cls-2" points="111.36 233.56 109.86 233.56 111.36 232.64 111.36 232.17 109.08 232.17 109.08 232.64 110.58 232.64 109.08 233.56 109.08 234.03 111.36 234.03 111.36 233.56"/><polygon class="cls-2" points="109.46 231.21 111.36 231.21 111.36 230.74 109.46 230.74 109.46 230.04 109.08 230.04 109.08 231.9 109.46 231.9 109.46 231.21"/><path class="cls-2" d="M111.36,229.65l-.47-.15v-.83l.47-.16V228l-2.28.86v.43l2.28.85Zm-.85-.28-.85-.28.85-.29Z"/><path class="cls-2" d="M111.36,227.33h-.83V227l.83-.43V226h0l-.93.49a.72.72,0,0,0-.25-.31.75.75,0,0,0-.39-.1.64.64,0,0,0-.51.22,1,1,0,0,0-.18.63v.85h2.28Zm-1.21,0h-.69V227a.38.38,0,0,1,.09-.28.36.36,0,0,1,.26-.1.36.36,0,0,1,.25.1.41.41,0,0,1,.09.28Z"/><polygon class="cls-2" points="111.36 225.27 111.36 224.79 110.53 224.79 109.08 224.04 109.08 224.56 110.11 225.03 109.08 225.51 109.08 226.02 110.53 225.27 111.36 225.27"/><polygon class="cls-2" points="32.39 239.05 32.01 239.05 32.01 240.92 32.39 240.92 32.39 240.22 34.29 240.22 34.29 239.75 32.39 239.75 32.39 239.05"/><polygon class="cls-2" points="32.01 237.4 33.73 237.92 32.01 238.43 32.01 238.95 34.29 238.16 34.29 237.67 32.01 236.87 32.01 237.4"/><path class="cls-2" d="M33.69,234.2a.61.61,0,0,0-.45.18,1.47,1.47,0,0,0-.3.59,1.3,1.3,0,0,1-.14.33.22.22,0,0,1-.18.11.25.25,0,0,1-.2-.09.45.45,0,0,1-.07-.27.41.41,0,0,1,.09-.28.3.3,0,0,1,.24-.1v-.47a.67.67,0,0,0-.37.11.79.79,0,0,0-.25.29,1.12,1.12,0,0,0,0,.88.69.69,0,0,0,.22.3.56.56,0,0,0,.33.1.64.64,0,0,0,.57-.39,3.11,3.11,0,0,0,.16-.38,1,1,0,0,1,.15-.34.22.22,0,0,1,.2-.1.21.21,0,0,1,.19.1A.4.4,0,0,1,34,235c0,.3-.12.45-.38.45V236a.64.64,0,0,0,.39-.11.89.89,0,0,0,.27-.33,1.28,1.28,0,0,0,.09-.48,1,1,0,0,0-.17-.61A.53.53,0,0,0,33.69,234.2Z"/><path class="cls-2" d="M33.29,232.36a.66.66,0,0,0-.53-.23.74.74,0,0,0-.39.11.66.66,0,0,0-.27.3A1.06,1.06,0,0,0,32,233v.89h2.28v-.47h-.8V233A1,1,0,0,0,33.29,232.36Zm-.18,1h-.72V233a.35.35,0,0,1,.38-.37.33.33,0,0,1,.25.09.42.42,0,0,1,.09.29Z"/><polygon class="cls-2" points="34.29 230.28 33.91 230.28 33.91 231.34 33.3 231.34 33.3 230.43 32.93 230.43 32.93 231.34 32.39 231.34 32.39 230.28 32.01 230.28 32.01 231.81 34.29 231.81 34.29 230.28"/><path class="cls-2" d="M32.49,230a1.38,1.38,0,0,0,.59.12h.14a1.26,1.26,0,0,0,.81-.25.89.89,0,0,0,.29-.7,1,1,0,0,0-.21-.64.79.79,0,0,0-.58-.28v.48a.46.46,0,0,1,.31.12.44.44,0,0,1,.1.32.41.41,0,0,1-.17.36,1.09,1.09,0,0,1-.54.11h-.18a.91.91,0,0,1-.52-.12.41.41,0,0,1-.17-.35.42.42,0,0,1,.1-.32.43.43,0,0,1,.32-.13v-.47a.89.89,0,0,0-.59.28.94.94,0,0,0-.22.64.92.92,0,0,0,.14.5A.94.94,0,0,0,32.49,230Z"/><rect class="cls-2" x="32.01" y="227.39" width="2.29" height="0.47"/><path class="cls-2" d="M34.29,226.65l-.47-.16v-.82l.47-.16V225l-2.28.85v.44l2.28.85Zm-.85-.28-.86-.29.86-.29Z"/><polygon class="cls-2" points="34.29 223.32 33.91 223.32 33.91 224.32 32.01 224.32 32.01 224.79 34.29 224.79 34.29 223.32"/><polygon class="cls-2" points="178.82 239.05 178.44 239.05 178.44 240.92 178.82 240.92 178.82 240.22 180.72 240.22 180.72 239.75 178.82 239.75 178.82 239.05"/><polygon class="cls-2" points="178.44 237.4 180.16 237.92 178.44 238.43 178.44 238.95 180.72 238.16 180.72 237.67 178.44 236.87 178.44 237.4"/><path class="cls-2" d="M180.12,234.2a.61.61,0,0,0-.45.18,1.47,1.47,0,0,0-.3.59,1.3,1.3,0,0,1-.14.33.22.22,0,0,1-.18.11.25.25,0,0,1-.2-.09.45.45,0,0,1-.07-.27.41.41,0,0,1,.09-.28.3.3,0,0,1,.24-.1v-.47a.67.67,0,0,0-.37.11.79.79,0,0,0-.25.29,1.12,1.12,0,0,0,0,.88.69.69,0,0,0,.22.3.56.56,0,0,0,.33.1.64.64,0,0,0,.57-.39,3.11,3.11,0,0,0,.16-.38,1,1,0,0,1,.15-.34.21.21,0,0,1,.2-.1.21.21,0,0,1,.19.1.4.4,0,0,1,.07.26c0,.3-.13.45-.38.45V236a.64.64,0,0,0,.39-.11.89.89,0,0,0,.27-.33,1.28,1.28,0,0,0,.09-.48,1,1,0,0,0-.17-.61A.53.53,0,0,0,180.12,234.2Z"/><path class="cls-2" d="M179.72,232.36a.66.66,0,0,0-.53-.23.74.74,0,0,0-.39.11.66.66,0,0,0-.27.3,1.06,1.06,0,0,0-.09.45v.89h2.28v-.47h-.8V233A1,1,0,0,0,179.72,232.36Zm-.19,1h-.71V233a.35.35,0,0,1,.38-.37.35.35,0,0,1,.25.09.42.42,0,0,1,.08.29Z"/><polygon class="cls-2" points="180.72 230.28 180.34 230.28 180.34 231.34 179.73 231.34 179.73 230.43 179.36 230.43 179.36 231.34 178.82 231.34 178.82 230.28 178.44 230.28 178.44 231.81 180.72 231.81 180.72 230.28"/><path class="cls-2" d="M178.92,230a1.38,1.38,0,0,0,.59.12h.13a1.27,1.27,0,0,0,.82-.25.89.89,0,0,0,.29-.7,1,1,0,0,0-.21-.64.79.79,0,0,0-.58-.28v.48a.46.46,0,0,1,.31.12.44.44,0,0,1,.1.32.41.41,0,0,1-.17.36,1.09,1.09,0,0,1-.54.11h-.18a.91.91,0,0,1-.52-.12.41.41,0,0,1-.17-.35.42.42,0,0,1,.1-.32.43.43,0,0,1,.32-.13v-.47a.89.89,0,0,0-.59.28.94.94,0,0,0-.22.64.92.92,0,0,0,.14.5A.94.94,0,0,0,178.92,230Z"/><rect class="cls-2" x="178.44" y="227.39" width="2.29" height="0.47"/><path class="cls-2" d="M180.72,226.65l-.47-.16v-.82l.47-.16V225l-2.28.85v.44l2.28.85Zm-.85-.28-.86-.29.86-.29Z"/><polygon class="cls-2" points="180.72 223.32 180.34 223.32 180.34 224.32 178.44 224.32 178.44 224.79 180.72 224.79 180.72 223.32"/><path class="cls-14" d="M101.44,172.79c0,1.09,0,2.19,0,3.28a1.64,1.64,0,0,0,0,.23v.08c0,1.22,0,2.44,0,3.67v38.83c0,1.11,0,2.23,0,3.34,0,.14-.1.19-.61.18-.93,0-1.87,0-2.8,0-.51,0-.62,0-.62-.18,0-2.33,0-4.66,0-7V194.14q0-10.62,0-21.24a.45.45,0,0,1,0-.11Z"/><path class="cls-15" d="M106.78,176.38c0,1.06,0,2.13,0,3.19a2.29,2.29,0,0,0,0,.25v.07c0,1.28,0,2.55,0,3.82q0,19.22,0,38.43c0,.26,0,.26-.86.26s-1.69,0-2.54,0c-.51,0-.61,0-.61-.18,0-1.18,0-2.37,0-3.55V180.06c0-1.22,0-2.45,0-3.68Z"/><path class="cls-14" d="M112.15,187v21.23c0,1.26,0,2.52,0,3.78,0,3.39,0,6.79,0,10.18,0,.17-.17.22-.77.21-.86,0-1.73,0-2.6,0-.49,0-.67,0-.67-.18,0-2.33,0-4.66,0-7v-21.1q0-5.24,0-10.46c0-.15.12-.2.65-.19q1.33,0,2.67,0c.55,0,.71,0,.71.19,0,1,0,2,0,3,0,.07,0,.14,0,.21Z"/><path class="cls-14" d="M117.49,215.33c0,1.26,0,2.52,0,3.78,0,1,0,2.08,0,3.12,0,.14-.14.18-.63.17-.86,0-1.73,0-2.6,0-.62,0-.8,0-.8-.22,0-3.26,0-6.53,0-9.8a3.09,3.09,0,0,0,0-.43c0-.1.1-.14.45-.13,1,0,1.92,0,2.87,0,.55,0,.71,0,.7.2,0,1,0,2,0,3a1.49,1.49,0,0,0,0,.21Z"/><path class="cls-14" d="M122.81,220.66c0,.53,0,1.06,0,1.58,0,.13-.14.16-.56.16q-1.47,0-2.94,0c-.38,0-.53,0-.53-.14,0-1.07,0-2.13,0-3.19,0-.12.11-.16.53-.15,1,0,1.91,0,2.86,0,.49,0,.65,0,.64.17C122.78,219.62,122.81,220.14,122.81,220.66Z"/><path class="cls-15" d="M157.39,197.84l0,3.53c0,.85,0,1.71,0,2.56V204a2.48,2.48,0,0,0,0,.27q0,8.94,0,17.89c0,.2-.18.27-1,.25-.94,0-1.9,0-2.85,0-.66,0-.86,0-.86-.22,0-2.1,0-4.19,0-6.29V179.35q0-4.78,0-9.57c0-.17.11-.24.83-.22.94,0,1.9,0,2.85,0,.75,0,1,0,1,.24-.06,1.07,0,2.13,0,3.19a1.81,1.81,0,0,0,0,.23v.08l0,3.65c0,.79,0,1.58,0,2.36v.08l0,3.56c0,.84,0,1.69,0,2.54v.08l0,3.49c0,.87,0,1.73,0,2.6v.08l0,3.66c0,.78,0,1.57,0,2.35Z"/><path class="cls-14" d="M163.56,210.19c0,1.18,0,2.37,0,3.55,0,.82,0,1.64,0,2.46v.08c0,1.15,0,2.3,0,3.45,0,.84,0,1.67,0,2.5,0,.16-.15.2-.72.19-1,0-2,0-3,0-.72,0-.94,0-.93-.23,0-2.1,0-4.2,0-6.3,0-2.67,0-5.34,0-8,0-.18.14-.24.84-.23,1,0,2,0,3,0,.62,0,.82,0,.81.21,0,.75,0,1.49,0,2.24Z"/><path class="cls-15" d="M169.7,216.28c0,2,0,4,0,6,0,.11-.1.15-.55.15h-3.55c-.44,0-.55,0-.55-.15,0-2,0-4,0-6Z"/><path class="cls-13" d="M182.28,222.41h-5c.22-.09.17-.18.17-.27,0-1.47,0-2.95,0-4.42,0-.19.21-.23.87-.22h2.93c.66,0,.87,0,.87.22,0,1.47,0,2.95,0,4.42C182.07,222.23,182,222.32,182.28,222.41Z"/><path class="cls-14" d="M171.26,220c0-.76,0-1.51,0-2.27,0-.14.14-.19.68-.18h3.4c.42,0,.58,0,.58.14,0,1.55,0,3.09,0,4.63,0,.12-.14.15-.57.15h-3.47c-.54,0-.62,0-.61-.17C171.27,221.48,171.26,220.72,171.26,220Z"/><path class="cls-13" d="M188.43,222.41h-5c.26-.17.11-.35.13-.52a1.81,1.81,0,0,0,0-.52c0-.1.14-.13.5-.13h3.62c.42,0,.53,0,.52.14,0,.27,0,.54,0,.81C188.23,222.26,188.21,222.34,188.43,222.41Z"/><path class="cls-14" d="M192.07,222.42H190.3c-.38,0-.54,0-.53-.14a4.61,4.61,0,0,0,0-.91c0-.11.14-.14.54-.13h3.62c.37,0,.49,0,.49.12a7.37,7.37,0,0,0,0,.94c0,.1-.15.12-.5.12Z"/><path class="cls-2" d="M166.1,240.88l1.7-.56-1.7-.56v-.6h2.34v.46h-.64l-1.1-.05,1.74.59v.31l-1.74.59,1.1,0h.64v.45H166.1Z"/><path class="cls-2" d="M168.44,238.29v.45H166.1v-.45Z"/><path class="cls-2" d="M168.44,236.09v.45l-1.54.88h1.54v.45H166.1v-.45l1.54-.88H166.1v-.45Z"/><path class="cls-2" d="M168.44,235.21v.46H166.1v-.46Z"/><path class="cls-2" d="M167.83,232.89a.26.26,0,0,0-.21.09,1.25,1.25,0,0,0-.16.33,1.45,1.45,0,0,1-.16.37.63.63,0,0,1-.58.37.57.57,0,0,1-.34-.1.58.58,0,0,1-.23-.28,1,1,0,0,1-.08-.42.93.93,0,0,1,.09-.42.71.71,0,0,1,.25-.29.7.7,0,0,1,.38-.1v.45a.3.3,0,0,0-.25.1.36.36,0,0,0-.09.26.4.4,0,0,0,.07.26.27.27,0,0,0,.2.09.21.21,0,0,0,.19-.11,1,1,0,0,0,.15-.31,1.18,1.18,0,0,1,.31-.56.62.62,0,0,1,.46-.18.55.55,0,0,1,.47.22.85.85,0,0,1,.18.57,1.2,1.2,0,0,1-.1.47.82.82,0,0,1-.27.31.77.77,0,0,1-.4.11v-.45c.25,0,.38-.15.38-.44A.39.39,0,0,0,168,233,.22.22,0,0,0,167.83,232.89Z"/><path class="cls-2" d="M167.43,230.82v.86h.63v-1h.38v1.46H166.1v-1.46h.39v1h.56v-.86Z"/><path class="cls-2" d="M167.59,229.59V230h.85v.45H166.1v-.81a.9.9,0,0,1,.18-.6.68.68,0,0,1,.53-.21.82.82,0,0,1,.4.09.75.75,0,0,1,.25.3l1-.48h0v.49Zm-.4.36v-.37a.31.31,0,0,0-.35-.35.37.37,0,0,0-.26.09.34.34,0,0,0-.09.27V230Z"/><path class="cls-2" d="M168.44,228v.46H166.1V228Z"/><path class="cls-2" d="M167.43,226.22v.86h.63v-1h.38v1.47H166.1v-1.47h.39v1h.56v-.86Z"/><path class="cls-2" d="M167.83,224.67a.26.26,0,0,0-.21.09,1.15,1.15,0,0,0-.16.32,1.45,1.45,0,0,1-.16.37.63.63,0,0,1-.92.28.66.66,0,0,1-.23-.29,1,1,0,0,1-.08-.42.93.93,0,0,1,.09-.42.71.71,0,0,1,.25-.29.8.8,0,0,1,.38-.1v.45a.34.34,0,0,0-.25.1.37.37,0,0,0-.09.27.37.37,0,0,0,.07.25.27.27,0,0,0,.2.09.22.22,0,0,0,.19-.1,1.2,1.2,0,0,0,.15-.32,1.23,1.23,0,0,1,.31-.56.62.62,0,0,1,.46-.18.55.55,0,0,1,.47.22.86.86,0,0,1,.18.58,1.19,1.19,0,0,1-.1.46.75.75,0,0,1-.27.31.69.69,0,0,1-.4.11v-.45c.25,0,.38-.14.38-.43a.37.37,0,0,0-.07-.25A.22.22,0,0,0,167.83,224.67Z"/></g></g></svg>