<svg xmlns="http://www.w3.org/2000/svg" xmlns:xlink="http://www.w3.org/1999/xlink" viewBox="0 0 163.36 150.17"><defs><style>.cls-1,.cls-10,.cls-11,.cls-3{fill:none;}.cls-2{clip-path:url(#clip-path);}.cls-10,.cls-11,.cls-3{stroke:#43485a;}.cls-11,.cls-3{stroke-miterlimit:10;}.cls-10,.cls-3{stroke-width:0.25px;}.cls-12,.cls-4,.cls-5,.cls-8{fill:#43485a;}.cls-5,.cls-7{isolation:isolate;}.cls-5,.cls-7,.cls-8{font-size:1.57px;font-family:ArialMT, Arial;}.cls-6,.cls-7{fill:#b87565;}.cls-9{opacity:0.24;}.cls-10{stroke-linecap:round;stroke-linejoin:round;}.cls-12{font-size:3.37px;font-family:AdelleSans-Bold, Adelle Sans;font-weight:700;}.cls-13{font-size:2.41px;}</style><clipPath id="clip-path" transform="translate(-6.68 2.95)"><rect class="cls-1" width="170.86" height="147.33"/></clipPath></defs><g id="Layer_2" data-name="Layer 2"><g id="Layer_1-2" data-name="Layer 1"><g class="cls-2"><g id="axis"><path class="cls-3" d="M10.61,145.12v-.94H167.68v.94" transform="translate(-6.68 2.95)"/><line class="cls-4" x1="3.93" y1="147.12" x2="3.93" y2="148.07"/><text class="cls-5" transform="translate(1.57 149.66) scale(1.35 1)">1965</text><line class="cls-4" x1="30.11" y1="147.12" x2="30.11" y2="148.07"/><text class="cls-5" transform="translate(27.75 149.66) scale(1.35 1)">1975</text><line class="cls-4" x1="43.19" y1="147.12" x2="43.19" y2="148.07"/><text class="cls-5" transform="translate(40.83 149.66) scale(1.35 1)">1980</text><line class="cls-4" x1="56.29" y1="147.12" x2="56.29" y2="148.07"/><text class="cls-5" transform="translate(53.93 149.66) scale(1.35 1)">1985</text><line class="cls-4" x1="69.38" y1="147.12" x2="69.38" y2="148.07"/><text class="cls-5" transform="translate(67.01 149.66) scale(1.35 1)">1990</text><line class="cls-4" x1="82.46" y1="147.12" x2="82.46" y2="148.07"/><text class="cls-5" transform="translate(80.1 149.66) scale(1.35 1)">1995</text><line class="cls-4" x1="95.55" y1="147.12" x2="95.55" y2="148.07"/><text class="cls-5" transform="translate(93.19 149.66) scale(1.35 1)">2000</text><line class="cls-4" x1="108.64" y1="147.12" x2="108.64" y2="148.07"/><text class="cls-5" transform="translate(106.28 149.66) scale(1.35 1)">2005</text><line class="cls-4" x1="121.73" y1="147.12" x2="121.73" y2="148.07"/><text class="cls-5" transform="translate(119.37 149.66) scale(1.35 1)">2010</text><line class="cls-4" x1="134.82" y1="147.12" x2="134.82" y2="148.07"/><text class="cls-5" transform="translate(132.46 149.66) scale(1.35 1)">2015</text><line class="cls-4" x1="147.91" y1="147.12" x2="147.91" y2="148.07"/><text class="cls-5" transform="translate(145.54 149.66) scale(1.35 1)">2020</text><line class="cls-4" x1="161" y1="147.12" x2="161" y2="148.07"/><text class="cls-5" transform="translate(158.64 149.66) scale(1.35 1)">2025</text><line class="cls-4" x1="3.93" y1="124.69" x2="2.66" y2="124.69"/><text class="cls-5" transform="translate(0.84 125.2) scale(1.35 1)">2</text><line class="cls-4" x1="3.93" y1="113.48" x2="2.66" y2="113.48"/><text class="cls-5" transform="translate(0.84 113.98) scale(1.35 1)">3</text><line class="cls-4" x1="3.93" y1="102.26" x2="2.66" y2="102.26"/><text class="cls-5" transform="translate(0.84 102.77) scale(1.35 1)">4</text><line class="cls-4" x1="3.93" y1="91.05" x2="2.66" y2="91.05"/><text class="cls-5" transform="translate(0.84 91.55) scale(1.35 1)">5</text><line class="cls-4" x1="3.93" y1="79.83" x2="2.66" y2="79.83"/><text class="cls-5" transform="translate(0.84 80.33) scale(1.35 1)">6</text><line class="cls-4" x1="3.93" y1="68.61" x2="2.66" y2="68.61"/><text class="cls-5" transform="translate(0.84 69.12) scale(1.35 1)">7</text><line class="cls-4" x1="3.93" y1="57.4" x2="2.66" y2="57.4"/><text class="cls-5" transform="translate(0.84 57.9) scale(1.35 1)">8</text><line class="cls-4" x1="3.93" y1="46.05" x2="2.66" y2="46.05"/><text class="cls-5" transform="translate(0.84 46.56) scale(1.35 1)">9</text><line class="cls-4" x1="3.93" y1="34.85" x2="2.66" y2="34.85"/><text class="cls-5" transform="translate(0 35.35) scale(1.35 1)">10</text><line class="cls-4" x1="3.09" y1="23.45" x2="1.82" y2="23.45"/><text class="cls-5" transform="translate(0 23.95) scale(1.35 1)">11</text><line class="cls-4" x1="3.93" y1="12.25" x2="2.66" y2="12.25"/><text class="cls-5" transform="translate(0 12.75) scale(1.35 1)">12</text><line class="cls-6" x1="3.09" y1="0.85" x2="1.82" y2="0.85"/><text class="cls-7" transform="translate(0 1.35) scale(1.35 1)">11</text></g></g><path class="cls-3" d="M137,110.21c2.15.45,5.89,1.76,6.23,5.51" transform="translate(-6.68 2.95)"/><path class="cls-4" d="M135.46,110a7.34,7.34,0,0,1,1.92,1.51l-.24-1.24.62-1.11A7.82,7.82,0,0,1,135.46,110Z" transform="translate(-6.68 2.95)"/><text class="cls-8" transform="translate(14.66 149.66) scale(1.35 1)">1970</text><g id="svg-main-svg" class="cls-9"><g id="group-svg"><g id="lines-svg"><g id="Count-svg_of-svg_Movie_Show-svg" data-name="Count-svg of-svg Movie/Show-svg"><path id="Count_of_Movie_Show" data-name="Count of Movie/Show" class="cls-10" d="M15.71,132.34c.87,9.3,1.75,18.6,2.63-11S20.1,23.15,21,22.12s1.71,65.44,2.62,88.17,1.91,1.72,2.63,0,1.15,15.88,2.62,22,4,.92,5.26,0,1.32,2.49,2.63,0,3.89-10.89,5.25-11,1.52,8,2.63,11,3.18,1,5.25,0,4.13-1,5.25,0,1.3,3.1,2.63,0,3.81-11.38,5.26-11,1.86,9.32,2.62,11,1.86-3.89,2.63-11,1.21-15.81,2.62-11,3.78,23,5.26,22,2.05-21.24,2.62-22,1.16,17.84,2.63,22,3.83-6,5.25-11,1.9-4.79,2.63-11,1.71-18.93,2.62-11,1.77,36.43,2.64,33.07,1.74-38.61,2.62-44.09,1.75,18.8,2.63,11,1.74-47.62,2.62-44.09,1.76,50.44,2.63,55.11,1.75-32.9,2.63-33.06,1.75,37.08,2.62,33.06S112,61,112.9,55.18s1.75,27.8,2.63,44.09,1.75,15.26,2.62,11,1.76-11.66,2.63-11,1.75,9.35,2.62,11,1.76-3.69,2.64,0,1.75,16.46,2.62,22,1.75,4,2.63-11S133,77.84,133.91,66.2s1.76-6.47,2.63,0,1.75,14.25,2.63,22,1.75,15.63,2.62,22,1.75,11.41,2.63-11,1.75-72.28,2.63-77.15,1.75,35.23,2.63,33.06,1.75-46.6,2.62-44.09,1.75,52,2.63,66.14,1.75-7,2.63-11,1.75,9,2.62,22" transform="translate(-6.68 2.95)"/></g></g></g></g><g id="viz"><path class="cls-11" d="M15.84,133c.87-.46,1.74-.91,2.62-5.61s1.76-13.62,2.62-16.82,1.71-.66,2.62,0,1.9-.56,2.62,0,1.14,2.89,2.61,3.74,4,.21,5.24,0,1.31,0,2.62,1.87,3.88,5.44,5.24,7.48a25.29,25.29,0,0,0,2.61,3.73,14.15,14.15,0,0,0,5.23,3.74,10.85,10.85,0,0,0,5.24,0,22.83,22.83,0,0,1,2.62,0,23,23,0,0,1,5.24,0c1.44.35,1.86,1.35,2.61,1.87a2.32,2.32,0,0,0,2.62,0c.77-.56,1.21-1.72,2.62-1.87s3.77.71,5.24,0,2-3,2.61-3.74,1.15,0,2.62,0a10.86,10.86,0,0,0,5.24-1.87c1.41-1,1.89-2.26,2.61-3.73s1.71-3.19,2.62-3.74,1.76,0,2.62,0A3.9,3.9,0,0,0,97,116.14a18,18,0,0,0,2.61-5.61c.88-2.8,1.75-6.74,2.62-7.48s1.75,1.75,2.62,1.87,1.75-2.11,2.62-3.74,1.74-2.63,2.62-1.87,1.74,3.32,2.61,3.74,1.75-1.27,2.62,0,1.75,5.5,2.62,5.61,1.74-3.91,2.62-3.74,1.74,4.55,2.61,5.61,1.75-1.18,2.63-1.87,1.74.17,2.61,1.87,1.75,4.25,2.62,3.74,1.74-4.08,2.61-5.61,1.75-1,2.63-1.87,1.74-3,2.61-3.74,1.75,0,2.62,0,1.74-.87,2.61-5.6,1.75-13.37,2.63-16.83,1.74-1.73,2.61-3.74,1.75-7.74,2.62-9.34,1.74.93,2.62,0,1.75-5.34,2.62-7.48,1.74-2,2.62-1.87" transform="translate(-6.68 2.95)"/><ellipse class="cls-11" cx="9.16" cy="135.91" rx="0.21" ry="0.16"/><ellipse class="cls-11" cx="11.78" cy="130.3" rx="0.21" ry="0.16"/><ellipse class="cls-11" cx="14.4" cy="113.48" rx="0.21" ry="0.16"/><ellipse class="cls-11" cx="17.02" cy="113.48" rx="0.21" ry="0.16"/><ellipse class="cls-11" cx="19.64" cy="113.48" rx="0.21" ry="0.16"/><ellipse class="cls-11" cx="22.25" cy="117.22" rx="0.21" ry="0.16"/><ellipse class="cls-11" cx="27.49" cy="117.22" rx="0.21" ry="0.16"/><ellipse class="cls-11" cx="30.11" cy="119.09" rx="0.21" ry="0.16"/><ellipse class="cls-11" cx="35.35" cy="126.56" rx="0.21" ry="0.16"/><ellipse class="cls-11" cx="37.96" cy="130.3" rx="0.21" ry="0.16"/><ellipse class="cls-11" cx="43.19" cy="134.04" rx="0.21" ry="0.16"/><ellipse class="cls-11" cx="48.43" cy="134.04" rx="0.21" ry="0.16"/><ellipse class="cls-11" cx="51.05" cy="134.04" rx="0.21" ry="0.16"/><ellipse class="cls-11" cx="56.29" cy="134.04" rx="0.21" ry="0.16"/><ellipse class="cls-11" cx="58.9" cy="135.91" rx="0.21" ry="0.16"/><ellipse class="cls-11" cx="61.52" cy="135.91" rx="0.21" ry="0.16"/><ellipse class="cls-11" cx="64.14" cy="134.04" rx="0.21" ry="0.16"/><ellipse class="cls-11" cx="69.38" cy="134.04" rx="0.21" ry="0.16"/><ellipse class="cls-11" cx="71.99" cy="130.3" rx="0.21" ry="0.16"/><ellipse class="cls-11" cx="74.61" cy="130.3" rx="0.21" ry="0.16"/><ellipse class="cls-11" cx="79.85" cy="128.43" rx="0.21" ry="0.16"/><ellipse class="cls-11" cx="82.46" cy="124.69" rx="0.21" ry="0.16"/><ellipse class="cls-11" cx="85.08" cy="120.95" rx="0.21" ry="0.16"/><ellipse class="cls-11" cx="87.7" cy="120.95" rx="0.21" ry="0.16"/><ellipse class="cls-11" cx="90.32" cy="119.09" rx="0.21" ry="0.16"/><ellipse class="cls-11" cx="92.93" cy="113.48" rx="0.21" ry="0.16"/><ellipse class="cls-11" cx="95.55" cy="106" rx="0.21" ry="0.16"/><ellipse class="cls-11" cx="98.17" cy="107.87" rx="0.21" ry="0.16"/><ellipse class="cls-11" cx="100.79" cy="104.13" rx="0.21" ry="0.16"/><ellipse class="cls-11" cx="103.4" cy="102.26" rx="0.21" ry="0.16"/><ellipse class="cls-11" cx="106.02" cy="106" rx="0.21" ry="0.16"/><ellipse class="cls-11" cx="108.64" cy="106" rx="0.21" ry="0.16"/><ellipse class="cls-11" cx="111.26" cy="111.61" rx="0.21" ry="0.16"/><ellipse class="cls-11" cx="113.88" cy="107.87" rx="0.21" ry="0.16"/><ellipse class="cls-11" cx="116.49" cy="113.48" rx="0.21" ry="0.16"/><ellipse class="cls-11" cx="119.12" cy="111.61" rx="0.21" ry="0.16"/><ellipse class="cls-11" cx="121.73" cy="113.48" rx="0.21" ry="0.16"/><ellipse class="cls-11" cx="124.35" cy="117.22" rx="0.21" ry="0.16"/><ellipse class="cls-11" cx="126.96" cy="111.61" rx="0.21" ry="0.16"/><ellipse class="cls-11" cx="129.59" cy="109.74" rx="0.21" ry="0.16"/><ellipse class="cls-11" cx="132.2" cy="106" rx="0.21" ry="0.16"/><ellipse class="cls-11" cx="134.82" cy="106" rx="0.21" ry="0.16"/><ellipse class="cls-11" cx="137.43" cy="100.39" rx="0.21" ry="0.16"/><ellipse class="cls-11" cx="140.06" cy="83.57" rx="0.21" ry="0.16"/><ellipse class="cls-11" cx="142.67" cy="79.83" rx="0.21" ry="0.16"/><ellipse class="cls-11" cx="145.29" cy="70.48" rx="0.21" ry="0.16"/><ellipse class="cls-11" cx="147.91" cy="70.48" rx="0.21" ry="0.16"/><ellipse class="cls-11" cx="150.53" cy="63.01" rx="0.21" ry="0.16"/><ellipse class="cls-11" cx="153.14" cy="61.14" rx="0.21" ry="0.16"/></g><text class="cls-12" transform="translate(126.25 122.66) scale(0.91 1)">5 Year Moving Average <tspan class="cls-13"><tspan x="0" y="2.89">of the Total Number of References</tspan></tspan></text><text class="cls-8" transform="translate(0.84 136.41) scale(1.35 1)">1</text></g></g></svg>