<svg xmlns="http://www.w3.org/2000/svg" viewBox="0 0 182.29 38.9"><defs><style>.cls-1{fill:#a6bbdd;}.cls-2,.cls-6{fill:#43485a;}.cls-3{fill:#f15757;}.cls-4{fill:#f1a344;}.cls-5{fill:#d9cdbf;}.cls-6{font-size:5px;font-family:Roboto-Bold, Roboto;font-weight:700;}</style></defs><g id="Layer_2" data-name="Layer 2"><g id="Layer_1-2" data-name="Layer 1"><rect class="cls-1" x="126.92" width="55.37" height="8.27"/><path class="cls-2" d="M130.37,3.21h-.85V2.69h2.31v.52H131V5.59h-.62Z"/><path class="cls-2" d="M131.89,2.69h.69L133.24,5h0l.66-2.29h.63l-.9,2.9h-.83Z"/><path class="cls-2" d="M135.73,5.59V2.69h1.09a.85.85,0,0,1,1,.91c0,.69-.38,1.05-1.13,1.05h-.32v.94Zm1.42-1.95c0-.37-.22-.45-.52-.45h-.29v1h.25C136.9,4.16,137.15,4.06,137.15,3.64Z"/><path class="cls-2" d="M140.16,5.07v.52h-1.91V2.69h1.84v.52h-1.22v.68H140v.5h-1.14v.68Z"/><path class="cls-2" d="M142.2,5.59l-.57-1.1h-.4v1.1h-.61V2.69h1.13c.72,0,1,.39,1,.82a.84.84,0,0,1-.5.83l.66,1.25Zm-.13-2c0-.28-.17-.38-.5-.38h-.34V4h.32C141.84,4,142.07,3.9,142.07,3.57Z"/><path class="cls-2" d="M143.23,5.59V2.69h1.82v.52h-1.2v.73H145v.51h-1.11V5.59Z"/><path class="cls-2" d="M145.34,4.15a1.36,1.36,0,0,1,1.41-1.51,1.28,1.28,0,0,1,1.33,1.46c0,.94-.45,1.53-1.39,1.53S145.34,5,145.34,4.15Zm2.1,0c0-.67-.26-1-.7-1s-.77.31-.77,1,.28,1,.74,1S147.44,4.85,147.44,4.13Z"/><path class="cls-2" d="M150.14,5.59l-.57-1.1h-.4v1.1h-.61V2.69h1.13c.72,0,1,.39,1,.82a.84.84,0,0,1-.5.83l.66,1.25Zm-.13-2c0-.28-.17-.38-.5-.38h-.34V4h.32C149.78,4,150,3.9,150,3.57Z"/><path class="cls-2" d="M153.67,5.59V3.32h0L153,5.59h-.56l-.66-2.28h0V5.59h-.56V2.69h.92l.61,2.12h0l.61-2.12h.91v2.9Z"/><path class="cls-2" d="M157.37,5.59h-.68l-.24-.71h-1l-.22.71h-.64l1-2.9h.77ZM156,3.27l-.36,1.12h.74L156,3.27Z"/><path class="cls-2" d="M158.31,3.54V5.59h-.56V2.69h.73l1.1,2.05V2.69h.56v2.9h-.71Z"/><path class="cls-2" d="M160.62,4.17A1.35,1.35,0,0,1,162,2.64a1,1,0,0,1,1.14,1l-.57,0c0-.41-.21-.58-.58-.58s-.75.3-.75,1,.25,1,.71,1a.56.56,0,0,0,.62-.52l.56.09a1.09,1.09,0,0,1-1.19.93C161,5.63,160.62,5.07,160.62,4.17Z"/><path class="cls-2" d="M165.49,5.07v.52h-1.9V2.69h1.83v.52H164.2v.68h1.15v.5H164.2v.68Z"/><path class="cls-2" d="M166.43,3.42c0,.26.28.34.59.43s.91.27.91.87-.53.91-1.1.91-1.07-.16-1.12-.91l.56-.09a.51.51,0,0,0,.57.52c.26,0,.48-.09.48-.36s-.27-.33-.58-.41-.92-.24-.92-.87.47-.87,1.05-.87,1,.16,1,.85l-.56.06a.42.42,0,0,0-.48-.43C166.57,3.12,166.43,3.24,166.43,3.42Z"/><rect class="cls-3" y="0.41" width="55.37" height="8.27"/><rect class="cls-4" x="63.28" width="55.37" height="8.27"/><polygon class="cls-5" points="5.36 2.69 4.49 5.16 3.61 2.69 2.7 2.69 2.7 6.09 3.4 6.09 3.4 5.16 3.33 3.56 4.24 6.09 4.72 6.09 5.64 3.55 5.57 5.16 5.57 6.09 6.28 6.09 6.28 2.69 5.36 2.69"/><path class="cls-5" d="M7,3.43a2.08,2.08,0,0,0-.18.89v.16A2,2,0,0,0,7,5.35a1.28,1.28,0,0,0,.52.58,1.4,1.4,0,0,0,2-.58,2.07,2.07,0,0,0,.18-.88V4.31a2.07,2.07,0,0,0-.19-.88A1.32,1.32,0,0,0,9,2.85a1.46,1.46,0,0,0-1.51,0A1.32,1.32,0,0,0,7,3.43Zm1.81.07A1.38,1.38,0,0,1,9,4.31v.17a1.43,1.43,0,0,1-.19.81.67.67,0,0,1-1.09,0,1.41,1.41,0,0,1-.19-.8V4.3a1.43,1.43,0,0,1,.19-.81.63.63,0,0,1,.55-.27A.6.6,0,0,1,8.78,3.5Z"/><polygon class="cls-5" points="11.77 6.09 12.95 2.69 12.17 2.69 11.4 5.25 10.63 2.69 9.86 2.69 11.04 6.09 11.77 6.09"/><rect class="cls-5" x="13.32" y="2.69" width="0.7" height="3.4"/><polygon class="cls-5" points="16.95 6.09 16.95 5.53 15.37 5.53 15.37 4.62 16.72 4.62 16.72 4.07 15.37 4.07 15.37 3.25 16.95 3.25 16.95 2.69 14.67 2.69 14.67 6.09 16.95 6.09"/><polygon class="cls-2" points="67.79 3.22 67.79 2.68 65.19 2.68 65.19 3.22 66.15 3.22 66.15 5.88 66.81 5.88 66.81 3.22 67.79 3.22"/><polygon class="cls-2" points="70.11 2.68 69.38 5.09 68.66 2.68 67.93 2.68 69.04 5.88 69.73 5.88 70.84 2.68 70.11 2.68"/><path class="cls-2" d="M74.58,5a.86.86,0,0,0-.26-.63A2.14,2.14,0,0,0,73.5,4,1.72,1.72,0,0,1,73,3.8a.33.33,0,0,1-.16-.26A.32.32,0,0,1,73,3.27a.58.58,0,0,1,.37-.1.57.57,0,0,1,.39.12.43.43,0,0,1,.14.34h.66a1,1,0,0,0-.15-.52A1,1,0,0,0,74,2.76a1.44,1.44,0,0,0-.61-.12,1.7,1.7,0,0,0-.61.11,1.07,1.07,0,0,0-.42.32.76.76,0,0,0-.14.46.89.89,0,0,0,.54.8,3,3,0,0,0,.54.21,1.83,1.83,0,0,1,.48.22.34.34,0,0,1,.13.28.34.34,0,0,1-.13.27.65.65,0,0,1-.37.09c-.42,0-.63-.17-.63-.53h-.66a.94.94,0,0,0,.16.55,1,1,0,0,0,.46.37,1.6,1.6,0,0,0,.67.13,1.35,1.35,0,0,0,.84-.23A.78.78,0,0,0,74.58,5Z"/><polygon class="cls-2" points="77.16 2.68 75.02 2.68 75.02 5.88 77.17 5.88 77.17 5.35 75.68 5.35 75.68 4.5 76.95 4.5 76.95 3.98 75.68 3.98 75.68 3.22 77.16 3.22 77.16 2.68"/><path class="cls-2" d="M79.33,5.88H80v0l-.69-1.31a1,1,0,0,0,.43-.34,1,1,0,0,0,.14-.55.85.85,0,0,0-.31-.71,1.31,1.31,0,0,0-.87-.26H77.55v3.2h.66V4.71h.53Zm-1.12-1.7v-1h.53a.5.5,0,0,1,.39.13.45.45,0,0,1,.13.35.45.45,0,0,1-.13.35.57.57,0,0,1-.39.13Z"/><rect class="cls-2" x="80.46" y="2.68" width="0.66" height="3.2"/><polygon class="cls-2" points="83.87 5.88 83.87 5.35 82.39 5.35 82.39 4.5 83.65 4.5 83.65 3.98 82.39 3.98 82.39 3.22 83.87 3.22 83.87 2.68 81.73 2.68 81.73 5.88 83.87 5.88"/><path class="cls-2" d="M84.37,3.07a.77.77,0,0,0-.15.46.9.9,0,0,0,.55.8,3,3,0,0,0,.54.21,1.59,1.59,0,0,1,.47.22.32.32,0,0,1,.14.28.32.32,0,0,1-.14.27.6.6,0,0,1-.36.09c-.42,0-.63-.17-.63-.53h-.66a1,1,0,0,0,.15.55,1,1,0,0,0,.47.37,1.6,1.6,0,0,0,.67.13,1.35,1.35,0,0,0,.84-.23A.78.78,0,0,0,86.58,5a.86.86,0,0,0-.26-.63A2.14,2.14,0,0,0,85.5,4,1.72,1.72,0,0,1,85,3.8a.3.3,0,0,1-.16-.26A.32.32,0,0,1,85,3.27a.58.58,0,0,1,.37-.1.57.57,0,0,1,.39.12.43.43,0,0,1,.14.34h.66a1,1,0,0,0-.15-.52A1,1,0,0,0,86,2.76a1.48,1.48,0,0,0-.61-.12,1.7,1.7,0,0,0-.61.11A1.07,1.07,0,0,0,84.37,3.07Z"/><text class="cls-6" transform="translate(2.7 16.76) scale(0.93 1)">Documentary<tspan x="0" y="6">Movie</tspan><tspan x="0" y="12">Shorts</tspan><tspan x="0" y="18">TV Movie</tspan></text><text class="cls-6" transform="translate(65.08 16.76) scale(0.93 1)">Long Form Series<tspan x="0" y="6">Mini Series</tspan></text><text class="cls-6" transform="translate(129.44 16.76) scale(0.93 1)">TV Specials <tspan x="0" y="6">Talk Shows</tspan></text></g></g></svg>